font.ufo
<glyph name="arrowdblleft" format="1">
  <advance width="617"/>
  <unicode hex="21D0"/>
  <outline>
    <contour>
      <point x="300" y="-17" type="line"/>
      <point x="369" y="62" type="line"/>
      <point x="219" y="194" type="line"/>
      <point x="577" y="194" type="line"/>
      <point x="577" y="310" type="line"/>
      <point x="219" y="310" type="line"/>
      <point x="369" y="442" type="line"/>
      <point x="300" y="521" type="line"/>
      <point x="22" y="254" type="line"/>
      <point x="22" y="250" type="line"/>
    </contour>
  </outline>
</glyph>
<glyph name="arrowdblup" format="1">
  <advance width="617"/>
  <unicode hex="21D1"/>
  <outline>
    <contour>
      <point x="250" y="-26" type="line"/>
      <point x="367" y="-26" type="line"/>
      <point x="367" y="332" type="line"/>
      <point x="498" y="182" type="line"/>
      <point x="578" y="251" type="line"/>
      <point x="310" y="529" type="line"/>
      <point x="306" y="529" type="line"/>
      <point x="39" y="251" type="line"/>
      <point x="118" y="182" type="line"/>
      <point x="250" y="332" type="line"/>
    </contour>
  </outline>
</glyph>
<glyph name="arrowdblright" format="1">
  <advance width="617"/>
  <unicode hex="21D2"/>
  <outline>
    <contour>
      <point x="317" y="-17" type="line"/>
      <point x="595" y="250" type="line"/>
      <point x="595" y="254" type="line"/>
      <point x="317" y="521" type="line"/>
      <point x="247" y="442" type="line"/>
      <point x="397" y="310" type="line"/>
      <point x="40" y="310" type="line"/>
      <point x="40" y="194" type="line"/>
      <point x="397" y="194" type="line"/>
      <point x="247" y="62" type="line"/>
    </contour>
  </outline>
</glyph>
<glyph name="arrowdbldown" format="1">
  <advance width="617"/>
  <unicode hex="21D3"/>
  <outline>
    <contour>
      <point x="306" y="-26" type="line"/>
      <point x="310" y="-26" type="line"/>
      <point x="578" y="252" type="line"/>
      <point x="498" y="322" type="line"/>
      <point x="367" y="172" type="line"/>
      <point x="367" y="529" type="line"/>
      <point x="250" y="529" type="line"/>
      <point x="250" y="172" type="line"/>
      <point x="118" y="322" type="line"/>
      <point x="39" y="252" type="line"/>
    </contour>
  </outline>
</glyph>
<glyph name="Aie" format="1">
  <advance width="845"/>
  <outline>
    <component base="AE"/>
    <contour>
      <point x="548" y="694" type="move" name="aboveUC"/>
    </contour>
  </outline>
</glyph>
<glyph name="Alpha" format="1">
  <advance width="573"/>
  <outline>
    <component base="A"/>
    <contour>
      <point x="283" y="672" type="move" name="aboveUC"/>
    </contour>
    <contour>
      <point x="283" y="-20" type="move" name="belowLC"/>
    </contour>
  </outline>
</glyph>
<glyph name="Alphalatin" format="1">
  <advance width="668"/>
  <outline>
    <contour>
      <point x="309" y="-12" type="curve" smooth="yes"/>
      <point x="371" y="-12"/>
      <point x="439" y="22"/>
      <point x="486" y="74" type="curve"/>
      <point x="490" y="74" type="line"/>
      <point x="491" y="69" type="line"/>
      <point x="509" y="17"/>
      <point x="544" y="-12"/>
      <point x="600" y="-12" type="curve" smooth="yes"/>
      <point x="633" y="-12"/>
      <point x="656" y="-3"/>
      <point x="672" y="4" type="curve"/>
      <point x="655" y="117" type="line"/>
      <point x="649" y="115"/>
      <point x="644" y="115"/>
      <point x="638" y="115" type="curve" smooth="yes"/>
      <point x="627" y="115"/>
      <point x="612" y="125"/>
      <point x="612" y="158" type="curve" smooth="yes"/>
      <point x="612" y="650" type="line"/>
      <point x="500" y="650" type="line"/>
      <point x="489" y="582" type="line"/>
      <point x="485" y="582" type="line"/>
      <point x="433" y="636"/>
      <point x="381" y="661"/>
      <point x="317" y="661" type="curve" smooth="yes"/>
      <point x="181" y="661"/>
      <point x="46" y="534"/>
      <point x="46" y="324" type="curve" smooth="yes"/>
      <point x="46" y="115"/>
      <point x="149" y="-12"/>
    </contour>
    <contour>
      <point x="338" y="115" type="curve" smooth="yes"/>
      <point x="251" y="115"/>
      <point x="197" y="181"/>
      <point x="197" y="328" type="curve" smooth="yes"/>
      <point x="197" y="471"/>
      <point x="264" y="537"/>
      <point x="336" y="537" type="curve" smooth="yes"/>
      <point x="377" y="537"/>
      <point x="423" y="524"/>
      <point x="463" y="489" type="curve"/>
      <point x="463" y="182" type="line"/>
      <point x="426" y="133"/>
      <point x="386" y="115"/>
    </contour>
    <contour>
      <point x="327" y="674" type="move" name="aboveUC"/>
    </contour>
    <contour>
      <point x="327" y="0" type="move" name="ogonekUC"/>
    </contour>
    <contour>
      <point x="327" y="-22" type="move" name="belowLC"/>
    </contour>
  </outline>
</glyph>
<glyph name="Betalatin" format="1">
  <advance width="605"/>
  <outline>
    <contour>
      <point x="77" y="-188" type="line"/>
      <point x="205" y="-188" type="line"/>
      <point x="218" y="2" type="line"/>
      <point x="209" y="93" type="line"/>
      <point x="77" y="0" type="line"/>
    </contour>
    <component base="B"/>
  </outline>
</glyph>
<glyph name="Bhook.sc" format="1">
  <advance width="683"/>
  <outline>
    <contour>
      <point x="109" y="253" type="curve"/>
      <point x="153" y="317" type="line"/>
      <point x="137" y="328"/>
      <point x="127" y="344"/>
      <point x="127" y="370" type="curve" smooth="yes"/>
      <point x="127" y="399"/>
      <point x="149" y="421"/>
      <point x="185" y="421" type="curve" smooth="yes"/>
      <point x="340" y="421" type="line"/>
      <point x="409" y="528" type="line"/>
      <point x="214" y="528" type="line" smooth="yes"/>
      <point x="106" y="528"/>
      <point x="36" y="470"/>
      <point x="36" y="377" type="curve" smooth="yes"/>
      <point x="36" y="317"/>
      <point x="61" y="276"/>
    </contour>
    <component base="B.sc" xOffset="137"/>
    <contour>
      <point x="426" y="564" type="move" name="aboveUC"/>
    </contour>
    <contour>
      <point x="436" y="-22" type="move" name="belowLC"/>
    </contour>
  </outline>
</glyph>
<glyph name="Chilatin" format="1">
  <advance width="567"/>
  <outline>
    <contour>
      <point x="11" y="-188" type="line"/>
      <point x="169" y="-188" type="line"/>
      <point x="230" y="-17" type="line" smooth="yes"/>
      <point x="244" y="26"/>
      <point x="259" y="69"/>
      <point x="274" y="121" type="curve"/>
      <point x="278" y="121" type="line"/>
      <point x="296" y="69"/>
      <point x="311" y="26"/>
      <point x="327" y="-17" type="curve" smooth="yes"/>
      <point x="392" y="-188" type="line"/>
      <point x="556" y="-188" type="line"/>
      <point x="376" y="235" type="line"/>
      <point x="545" y="652" type="line"/>
      <point x="388" y="652" type="line"/>
      <point x="336" y="493" type="line" smooth="yes"/>
      <point x="323" y="454"/>
      <point x="309" y="411"/>
      <point x="294" y="358" type="curve"/>
      <point x="290" y="358" type="line"/>
      <point x="272" y="411"/>
      <point x="258" y="454"/>
      <point x="243" y="493" type="curve" smooth="yes"/>
      <point x="186" y="652" type="line"/>
      <point x="22" y="652" type="line"/>
      <point x="192" y="244" type="line"/>
    </contour>
  </outline>
</glyph>
<glyph name="Chook" format="1">
  <advance width="582"/>
  <outline>
    <contour>
      <point x="423" y="575" type="curve"/>
      <point x="550" y="579" type="line"/>
      <point x="532" y="602"/>
      <point x="519" y="625"/>
      <point x="519" y="655" type="curve" smooth="yes"/>
      <point x="519" y="686"/>
      <point x="540" y="703"/>
      <point x="570" y="703" type="curve" smooth="yes"/>
      <point x="581" y="703"/>
      <point x="588" y="700"/>
      <point x="598" y="696" type="curve"/>
      <point x="624" y="805" type="line"/>
      <point x="604" y="812"/>
      <point x="580" y="818"/>
      <point x="539" y="818" type="curve" smooth="yes"/>
      <point x="448" y="818"/>
      <point x="395" y="754"/>
      <point x="395" y="677" type="curve" smooth="yes"/>
      <point x="395" y="644"/>
      <point x="407" y="609"/>
    </contour>
    <component base="C"/>
  </outline>
</glyph>
<glyph name="Dhook.sc" format="1">
  <advance width="717"/>
  <outline>
    <contour>
      <point x="109" y="253" type="curve"/>
      <point x="155" y="317" type="line"/>
      <point x="140" y="328"/>
      <point x="130" y="341"/>
      <point x="130" y="366" type="curve" smooth="yes"/>
      <point x="130" y="394"/>
      <point x="152" y="414"/>
      <point x="187" y="414" type="curve" smooth="yes"/>
      <point x="340" y="414" type="line"/>
      <point x="409" y="528" type="line"/>
      <point x="214" y="528" type="line" smooth="yes"/>
      <point x="106" y="528"/>
      <point x="36" y="470"/>
      <point x="36" y="377" type="curve" smooth="yes"/>
      <point x="36" y="317"/>
      <point x="61" y="276"/>
    </contour>
    <component base="D.sc" xOffset="137"/>
    <contour>
      <point x="433" y="564" type="move" name="aboveUC"/>
    </contour>
    <contour>
      <point x="433" y="-22" type="move" name="belowLC"/>
    </contour>
  </outline>
</glyph>
<glyph name="Eng.a" format="1">
  <advance width="665"/>
  <outline>
    <contour>
      <point x="414" y="-182" type="curve" smooth="yes"/>
      <point x="543" y="-182"/>
      <point x="588" y="-91"/>
      <point x="588" y="18" type="curve" smooth="yes"/>
      <point x="588" y="652" type="line"/>
      <point x="448" y="652" type="line"/>
      <point x="448" y="422" type="line" smooth="yes"/>
      <point x="448" y="345"/>
      <point x="460" y="253"/>
      <point x="466" y="184" type="curve"/>
      <point x="462" y="184" type="line"/>
      <point x="398" y="328" type="line"/>
      <point x="228" y="652" type="line"/>
      <point x="77" y="652" type="line"/>
      <point x="77" y="0" type="line"/>
      <point x="217" y="0" type="line"/>
      <point x="217" y="231" type="line" smooth="yes"/>
      <point x="217" y="308"/>
      <point x="205" y="395"/>
      <point x="199" y="467" type="curve"/>
      <point x="203" y="467" type="line"/>
      <point x="267" y="325" type="line"/>
      <point x="437" y="0" type="line"/>
      <point x="444" y="0" type="line"/>
      <point x="444" y="-36"/>
      <point x="431" y="-66"/>
      <point x="392" y="-66" type="curve" smooth="yes"/>
      <point x="378" y="-66"/>
      <point x="366" y="-63"/>
      <point x="353" y="-59" type="curve"/>
      <point x="327" y="-168" type="line"/>
      <point x="347" y="-176"/>
      <point x="373" y="-182"/>
    </contour>
    <contour>
      <point x="332" y="672" type="move" name="aboveUC"/>
    </contour>
  </outline>
</glyph>
<glyph name="Eopen" format="1">
  <advance width="564"/>
  <outline>
    <contour>
      <point x="291" y="-12" type="curve" smooth="yes"/>
      <point x="146" y="-12"/>
      <point x="35" y="58"/>
      <point x="35" y="192" type="curve" smooth="yes"/>
      <point x="35" y="270"/>
      <point x="84" y="326"/>
      <point x="149" y="344" type="curve"/>
      <point x="149" y="348" type="line"/>
      <point x="94" y="373"/>
      <point x="66" y="426"/>
      <point x="66" y="489" type="curve" smooth="yes"/>
      <point x="66" y="597"/>
      <point x="147" y="664"/>
      <point x="297" y="664" type="curve" smooth="yes"/>
      <point x="377" y="664"/>
      <point x="452" y="636"/>
      <point x="510" y="584" type="curve"/>
      <point x="436" y="486" type="line"/>
      <point x="393" y="518"/>
      <point x="354" y="537"/>
      <point x="302" y="537" type="curve" smooth="yes"/>
      <point x="248" y="537"/>
      <point x="210" y="516"/>
      <point x="210" y="465" type="curve" smooth="yes"/>
      <point x="210" y="418"/>
      <point x="239" y="391"/>
      <point x="317" y="391" type="curve" smooth="yes"/>
      <point x="384" y="391" type="line"/>
      <point x="384" y="282" type="line"/>
      <point x="297" y="282" type="line" smooth="yes"/>
      <point x="217" y="282"/>
      <point x="179" y="258"/>
      <point x="179" y="203" type="curve" smooth="yes"/>
      <point x="179" y="147"/>
      <point x="226" y="115"/>
      <point x="293" y="115" type="curve" smooth="yes"/>
      <point x="351" y="115"/>
      <point x="404" y="134"/>
      <point x="453" y="179" type="curve"/>
      <point x="531" y="78" type="line"/>
      <point x="462" y="13"/>
      <point x="377" y="-12"/>
    </contour>
    <contour>
      <point x="284" y="674" type="move" name="aboveUC"/>
    </contour>
    <contour>
      <point x="291" y="0" type="move" name="baseLC"/>
    </contour>
    <contour>
      <point x="291" y="-22" type="move" name="belowLC"/>
    </contour>
  </outline>
</glyph>
<glyph name="Eopen.sc" format="1">
  <advance width="501"/>
  <outline>
    <contour>
      <point x="258" y="-12" type="curve" smooth="yes"/>
      <point x="329" y="-12"/>
      <point x="405" y="9"/>
      <point x="466" y="61" type="curve"/>
      <point x="398" y="157" type="line"/>
      <point x="356" y="124"/>
      <point x="305" y="100"/>
      <point x="258" y="100" type="curve" smooth="yes"/>
      <point x="209" y="100"/>
      <point x="175" y="123"/>
      <point x="175" y="161" type="curve" smooth="yes"/>
      <point x="175" y="204"/>
      <point x="202" y="225"/>
      <point x="260" y="225" type="curve" smooth="yes"/>
      <point x="337" y="225" type="line"/>
      <point x="337" y="317" type="line"/>
      <point x="276" y="317" type="line" smooth="yes"/>
      <point x="222" y="317"/>
      <point x="200" y="336"/>
      <point x="200" y="375" type="curve" smooth="yes"/>
      <point x="200" y="408"/>
      <point x="230" y="428"/>
      <point x="269" y="428" type="curve" smooth="yes"/>
      <point x="305" y="428"/>
      <point x="343" y="414"/>
      <point x="381" y="380" type="curve"/>
      <point x="451" y="474" type="line"/>
      <point x="397" y="517"/>
      <point x="332" y="540"/>
      <point x="264" y="540" type="curve" smooth="yes"/>
      <point x="127" y="540"/>
      <point x="58" y="482"/>
      <point x="58" y="392" type="curve" smooth="yes"/>
      <point x="58" y="344"/>
      <point x="82" y="302"/>
      <point x="127" y="281" type="curve"/>
      <point x="127" y="277" type="line"/>
      <point x="73" y="262"/>
      <point x="33" y="216"/>
      <point x="33" y="157" type="curve" smooth="yes"/>
      <point x="33" y="46"/>
      <point x="130" y="-12"/>
    </contour>
    <contour>
      <point x="244" y="567" type="move" name="aboveUC"/>
    </contour>
    <contour>
      <point x="244" y="0" type="move" name="baseLC"/>
    </contour>
    <contour>
      <point x="244" y="-22" type="move" name="belowLC"/>
    </contour>
  </outline>
</glyph>
<glyph name="Eopen.sups" format="1">
  <advance width="373"/>
  <outline>
    <contour>
      <point x="196" y="367" type="curve" smooth="yes"/>
      <point x="253" y="367"/>
      <point x="312" y="384"/>
      <point x="359" y="427" type="curve"/>
      <point x="304" y="497" type="line"/>
      <point x="271" y="468"/>
      <point x="235" y="456"/>
      <point x="197" y="456" type="curve" smooth="yes"/>
      <point x="153" y="456"/>
      <point x="124" y="476"/>
      <point x="124" y="511" type="curve" smooth="yes"/>
      <point x="124" y="545"/>
      <point x="148" y="560"/>
      <point x="199" y="560" type="curve" smooth="yes"/>
      <point x="259" y="560" type="line"/>
      <point x="259" y="635" type="line"/>
      <point x="212" y="635" type="line" smooth="yes"/>
      <point x="162" y="635"/>
      <point x="144" y="653"/>
      <point x="144" y="682" type="curve" smooth="yes"/>
      <point x="144" y="714"/>
      <point x="169" y="727"/>
      <point x="204" y="727" type="curve" smooth="yes"/>
      <point x="238" y="727"/>
      <point x="263" y="715"/>
      <point x="292" y="694" type="curve"/>
      <point x="346" y="763" type="line"/>
      <point x="305" y="797"/>
      <point x="254" y="815"/>
      <point x="200" y="815" type="curve" smooth="yes"/>
      <point x="97" y="815"/>
      <point x="42" y="770"/>
      <point x="42" y="699" type="curve" smooth="yes"/>
      <point x="42" y="658"/>
      <point x="61" y="622"/>
      <point x="97" y="606" type="curve"/>
      <point x="97" y="603" type="line"/>
      <point x="54" y="591"/>
      <point x="21" y="554"/>
      <point x="21" y="503" type="curve" smooth="yes"/>
      <point x="21" y="413"/>
      <point x="97" y="367"/>
    </contour>
  </outline>
</glyph>
<glyph name="Epsilon" format="1">
  <advance width="548"/>
  <outline>
    <component base="E"/>
    <contour>
      <point x="289" y="672" type="move" name="aboveUC"/>
    </contour>
  </outline>
</glyph>
<glyph name="Eth" format="1">
  <advance width="660"/>
  <outline>
    <contour>
      <point x="26" y="301" type="line"/>
      <point x="374" y="301" type="line"/>
      <point x="374" y="372" type="line"/>
      <point x="104" y="372" type="line"/>
      <point x="26" y="367" type="line"/>
    </contour>
    <component base="D" xOffset="25"/>
    <contour>
      <point x="330" y="672" type="move" name="aboveUC"/>
    </contour>
    <contour>
      <point x="330" y="-20" type="move" name="belowLC"/>
    </contour>
  </outline>
</glyph>
<glyph name="Eturned" format="1">
  <advance width="548"/>
  <outline>
    <component base="E" xScale="-1.0" xOffset="548"/>
    <contour>
      <point x="265" y="674" type="move" name="aboveUC"/>
    </contour>
    <contour>
      <point x="271" y="-22" type="move" name="belowLC"/>
    </contour>
  </outline>
</glyph>
<glyph name="Ezh" format="1">
  <advance width="567"/>
  <outline>
    <contour>
      <point x="272" y="-12" type="curve" smooth="yes"/>
      <point x="399" y="-12"/>
      <point x="525" y="66"/>
      <point x="525" y="209" type="curve" smooth="yes"/>
      <point x="525" y="316"/>
      <point x="456" y="393"/>
      <point x="307" y="394" type="curve"/>
      <point x="503" y="582" type="line"/>
      <point x="503" y="653" type="line"/>
      <point x="70" y="653" type="line"/>
      <point x="70" y="545" type="line"/>
      <point x="316" y="545" type="line"/>
      <point x="127" y="352" type="line"/>
      <point x="175" y="282" type="line"/>
      <point x="197" y="291"/>
      <point x="207" y="294"/>
      <point x="234" y="294" type="curve" smooth="yes"/>
      <point x="319" y="294"/>
      <point x="378" y="262"/>
      <point x="378" y="202" type="curve" smooth="yes"/>
      <point x="378" y="137"/>
      <point x="332" y="99"/>
      <point x="254" y="99" type="curve" smooth="yes"/>
      <point x="201" y="99"/>
      <point x="136" y="126"/>
      <point x="104" y="155" type="curve"/>
      <point x="38" y="70" type="line"/>
      <point x="83" y="28"/>
      <point x="174" y="-12"/>
    </contour>
    <contour>
      <point x="278" y="682" type="move" name="aboveUC"/>
    </contour>
    <contour>
      <point x="282" y="-22" type="move" name="belowLC"/>
    </contour>
  </outline>
</glyph>
<glyph name="Fhook.alt" format="1">
  <advance width="524"/>
  <outline>
    <contour>
      <point x="47" y="-182" type="curve" smooth="yes"/>
      <point x="175" y="-182"/>
      <point x="224" y="-91"/>
      <point x="224" y="18" type="curve" smooth="yes"/>
      <point x="224" y="253" type="line"/>
      <point x="450" y="253" type="line"/>
      <point x="450" y="377" type="line"/>
      <point x="224" y="377" type="line"/>
      <point x="224" y="528" type="line"/>
      <point x="488" y="528" type="line"/>
      <point x="488" y="652" type="line"/>
      <point x="77" y="652" type="line"/>
      <point x="77" y="0" type="line" smooth="yes"/>
      <point x="77" y="-36"/>
      <point x="64" y="-66"/>
      <point x="24" y="-66" type="curve" smooth="yes"/>
      <point x="11" y="-66"/>
      <point x="-1" y="-63"/>
      <point x="-15" y="-59" type="curve"/>
      <point x="-41" y="-168" type="line"/>
      <point x="-20" y="-176"/>
      <point x="5" y="-182"/>
    </contour>
  </outline>
</glyph>
<glyph name="Fhook" format="1">
  <advance width="586"/>
  <outline>
    <contour>
      <point x="286" y="333" type="line" smooth="yes"/>
      <point x="286" y="99"/>
      <point x="223" y="-12"/>
      <point x="82" y="-12" type="curve" smooth="yes"/>
      <point x="51" y="-12"/>
      <point x="12" y="-6"/>
      <point x="-8" y="7" type="curve"/>
      <point x="24" y="134" type="line"/>
      <point x="35" y="129"/>
      <point x="48" y="125"/>
      <point x="65" y="125" type="curve" smooth="yes"/>
      <point x="105" y="125"/>
      <point x="139" y="162"/>
      <point x="139" y="331" type="curve" smooth="yes"/>
      <point x="139" y="652" type="line"/>
      <point x="550" y="652" type="line"/>
      <point x="550" y="528" type="line"/>
      <point x="286" y="528" type="line"/>
    </contour>
    <contour>
      <point x="62" y="377" type="line"/>
      <point x="512" y="377" type="line"/>
      <point x="512" y="253" type="line"/>
      <point x="62" y="253" type="line"/>
    </contour>
  </outline>
</glyph>
<glyph name="Gammalatin" format="1">
  <advance width="556"/>
  <outline>
    <contour>
      <point x="190" y="285" type="line"/>
      <point x="367" y="285" type="line"/>
      <point x="563" y="652" type="line"/>
      <point x="413" y="652" type="line"/>
      <point x="336" y="481" type="line" smooth="yes"/>
      <point x="318" y="441"/>
      <point x="303" y="410"/>
      <point x="284" y="371" type="curve"/>
      <point x="280" y="371" type="line"/>
      <point x="260" y="410"/>
      <point x="246" y="441"/>
      <point x="227" y="481" type="curve" smooth="yes"/>
      <point x="149" y="652" type="line"/>
      <point x="-7" y="652" type="line"/>
    </contour>
    <contour>
      <point x="278" y="-12" type="curve" smooth="yes"/>
      <point x="377" y="-12"/>
      <point x="440" y="43"/>
      <point x="440" y="128" type="curve" smooth="yes"/>
      <point x="440" y="186"/>
      <point x="408" y="227"/>
      <point x="353" y="317" type="curve"/>
      <point x="204" y="317" type="line"/>
      <point x="149" y="227"/>
      <point x="117" y="186"/>
      <point x="117" y="128" type="curve" smooth="yes"/>
      <point x="117" y="43"/>
      <point x="180" y="-12"/>
    </contour>
    <contour>
      <point x="278" y="104" type="curve" smooth="yes"/>
      <point x="256" y="104"/>
      <point x="241" y="117"/>
      <point x="241" y="136" type="curve" smooth="yes"/>
      <point x="241" y="156"/>
      <point x="253" y="180"/>
      <point x="275" y="211" type="curve"/>
      <point x="279" y="211" type="line"/>
      <point x="304" y="180"/>
      <point x="315" y="157"/>
      <point x="315" y="136" type="curve" smooth="yes"/>
      <point x="315" y="117"/>
      <point x="300" y="104"/>
    </contour>
    <contour>
      <point x="278" y="674" type="move" name="aboveUC"/>
    </contour>
    <contour>
      <point x="275" y="-22" type="move" name="belowLC"/>
    </contour>
  </outline>
</glyph>
<glyph name="Glottalstoplatin" format="1">
  <advance width="481"/>
  <outline>
    <contour>
      <point x="145" y="0" type="line"/>
      <point x="292" y="0" type="line"/>
      <point x="292" y="213" type="line"/>
      <point x="401" y="278"/>
      <point x="467" y="348"/>
      <point x="467" y="459" type="curve" smooth="yes"/>
      <point x="467" y="596"/>
      <point x="356" y="664"/>
      <point x="224" y="664" type="curve" smooth="yes"/>
      <point x="116" y="664"/>
      <point x="43" y="619"/>
      <point x="-10" y="564" type="curve"/>
      <point x="63" y="472" type="line"/>
      <point x="101" y="512"/>
      <point x="148" y="545"/>
      <point x="207" y="545" type="curve" smooth="yes"/>
      <point x="277" y="545"/>
      <point x="320" y="512"/>
      <point x="320" y="452" type="curve" smooth="yes"/>
      <point x="320" y="386"/>
      <point x="280" y="336"/>
      <point x="145" y="268" type="curve"/>
    </contour>
  </outline>
</glyph>
<glyph name="Heng" format="1">
  <advance width="674"/>
  <outline>
    <contour>
      <point x="597" y="652" type="line"/>
      <point x="449" y="652" type="line"/>
      <point x="449" y="401" type="line"/>
      <point x="224" y="401" type="line"/>
      <point x="224" y="652" type="line"/>
      <point x="77" y="652" type="line"/>
      <point x="77" y="0" type="line"/>
      <point x="224" y="0" type="line"/>
      <point x="224" y="272" type="line"/>
      <point x="449" y="272" type="line"/>
      <point x="449" y="0" type="line" smooth="yes"/>
      <point x="449" y="-36"/>
      <point x="436" y="-66"/>
      <point x="396" y="-66" type="curve" smooth="yes"/>
      <point x="383" y="-66"/>
      <point x="371" y="-63"/>
      <point x="358" y="-59" type="curve"/>
      <point x="332" y="-168" type="line"/>
      <point x="352" y="-176"/>
      <point x="378" y="-182"/>
      <point x="419" y="-182" type="curve" smooth="yes"/>
      <point x="548" y="-182"/>
      <point x="597" y="-91"/>
      <point x="597" y="18" type="curve" smooth="yes"/>
    </contour>
    <contour>
      <point x="336" y="674" type="move" name="aboveUC"/>
    </contour>
    <contour>
      <point x="336" y="-22" type="move" name="belowLC"/>
    </contour>
  </outline>
</glyph>
<glyph name="I.a" format="1">
  <advance width="396"/>
  <outline>
    <contour>
      <point x="52" y="0" type="line"/>
      <point x="344" y="0" type="line"/>
      <point x="344" y="124" type="line"/>
      <point x="271" y="124" type="line"/>
      <point x="271" y="528" type="line"/>
      <point x="344" y="528" type="line"/>
      <point x="344" y="652" type="line"/>
      <point x="52" y="652" type="line"/>
      <point x="52" y="528" type="line"/>
      <point x="124" y="528" type="line"/>
      <point x="124" y="124" type="line"/>
      <point x="52" y="124" type="line"/>
    </contour>
    <contour>
      <point x="198" y="672" type="move" name="aboveUC"/>
    </contour>
    <contour>
      <point x="178" y="0" type="move" name="ogonekUC"/>
    </contour>
    <contour>
      <point x="198" y="-20" type="move" name="belowLC"/>
    </contour>
  </outline>
</glyph>
<glyph name="I" format="1">
  <advance width="301"/>
  <outline>
    <contour>
      <point x="77" y="0" type="line"/>
      <point x="224" y="0" type="line"/>
      <point x="224" y="652" type="line"/>
      <point x="77" y="652" type="line"/>
    </contour>
    <contour>
      <point x="151" y="672" type="move" name="aboveUC"/>
    </contour>
    <contour>
      <point x="131" y="0" type="move" name="ogonekUC"/>
    </contour>
    <contour>
      <point x="152" y="0" type="move" name="baseLC"/>
    </contour>
    <contour>
      <point x="151" y="-20" type="move" name="belowLC"/>
    </contour>
  </outline>
</glyph>
<glyph name="Iota" format="1">
  <advance width="301"/>
  <outline>
    <component base="I"/>
    <contour>
      <point x="151" y="672" type="move" name="aboveUC"/>
    </contour>
  </outline>
</glyph>
<glyph name="Iotalatin" format="1">
  <advance width="368"/>
  <outline>
    <contour>
      <point x="277" y="-12" type="curve" smooth="yes"/>
      <point x="307" y="-12"/>
      <point x="346" y="-6"/>
      <point x="366" y="7" type="curve"/>
      <point x="334" y="134" type="line"/>
      <point x="324" y="129"/>
      <point x="309" y="125"/>
      <point x="294" y="125" type="curve" smooth="yes"/>
      <point x="255" y="125"/>
      <point x="223" y="157"/>
      <point x="223" y="316" type="curve" smooth="yes"/>
      <point x="223" y="652" type="line"/>
      <point x="75" y="652" type="line"/>
      <point x="75" y="318" type="line" smooth="yes"/>
      <point x="75" y="95"/>
      <point x="136" y="-12"/>
    </contour>
  </outline>
</glyph>
<glyph name="Istroke" format="1">
  <advance width="352"/>
  <outline>
    <contour>
      <point x="26" y="285" type="line"/>
      <point x="326" y="285" type="line"/>
      <point x="326" y="356" type="line"/>
      <point x="103" y="356" type="line"/>
      <point x="26" y="350" type="line"/>
    </contour>
    <component base="I" xOffset="25"/>
  </outline>
</glyph>
<glyph name="Jcrossedtail" format="1">
  <advance width="501"/>
  <outline>
    <contour>
      <point x="417" y="-14" type="curve"/>
      <point x="520" y="51" type="line"/>
      <point x="450" y="202"/>
      <point x="325" y="307"/>
      <point x="209" y="307" type="curve" smooth="yes"/>
      <point x="102" y="307"/>
      <point x="38" y="246"/>
      <point x="38" y="155" type="curve" smooth="yes"/>
      <point x="38" y="61"/>
      <point x="105" y="-12"/>
      <point x="213" y="-12" type="curve" smooth="yes"/>
      <point x="357" y="-12"/>
      <point x="428" y="87"/>
      <point x="428" y="203" type="curve" smooth="yes"/>
      <point x="428" y="652" type="line"/>
      <point x="280" y="652" type="line"/>
      <point x="280" y="198" type="line" smooth="yes"/>
      <point x="280" y="149"/>
      <point x="265" y="115"/>
      <point x="227" y="115" type="curve" smooth="yes"/>
      <point x="197" y="115"/>
      <point x="181" y="135"/>
      <point x="181" y="157" type="curve" smooth="yes"/>
      <point x="181" y="179"/>
      <point x="199" y="194"/>
      <point x="225" y="194" type="curve" smooth="yes"/>
      <point x="281" y="194"/>
      <point x="368" y="101"/>
    </contour>
    <contour>
      <point x="352" y="674" type="move" name="aboveUC"/>
    </contour>
    <contour>
      <point x="262" y="-22" type="move" name="belowLC"/>
    </contour>
  </outline>
</glyph>
<glyph name="Khook" format="1">
  <advance width="614"/>
  <outline>
    <contour>
      <point x="482" y="514" type="line" smooth="yes"/>
      <point x="492" y="528"/>
      <point x="504" y="533"/>
      <point x="516" y="533" type="curve" smooth="yes"/>
      <point x="537" y="533"/>
      <point x="553" y="517"/>
      <point x="564" y="501" type="curve"/>
      <point x="649" y="572" type="line"/>
      <point x="625" y="605"/>
      <point x="569" y="664"/>
      <point x="501" y="664" type="curve" smooth="yes"/>
      <point x="458" y="664"/>
      <point x="421" y="650"/>
      <point x="373" y="580" type="curve" smooth="yes"/>
      <point x="228" y="385" type="line"/>
      <point x="224" y="385" type="line"/>
      <point x="224" y="652" type="line"/>
      <point x="77" y="652" type="line"/>
      <point x="77" y="0" type="line"/>
      <point x="224" y="0" type="line"/>
      <point x="224" y="175" type="line"/>
      <point x="300" y="275" type="line"/>
      <point x="459" y="0" type="line"/>
      <point x="620" y="0" type="line"/>
      <point x="387" y="392" type="line"/>
    </contour>
  </outline>
</glyph>
<glyph name="Kturned" format="1">
  <advance width="614"/>
  <outline>
    <component base="K" xScale="-1.0" xOffset="614"/>
    <contour>
      <point x="241" y="102" type="move" name="aboveUC"/>
    </contour>
    <contour>
      <point x="254" y="550" type="move" name="belowLC"/>
    </contour>
  </outline>
</glyph>
<glyph name="L.sc" format="1">
  <advance width="471"/>
  <outline>
    <contour>
      <point x="77" y="0" type="line"/>
      <point x="434" y="0" type="line"/>
      <point x="434" y="120" type="line"/>
      <point x="224" y="120" type="line"/>
      <point x="224" y="528" type="line"/>
      <point x="77" y="528" type="line"/>
    </contour>
    <contour>
      <point x="155" y="563" type="move" name="aboveUC"/>
    </contour>
    <contour>
      <point x="153" y="291" type="move" name="center"/>
    </contour>
    <contour>
      <point x="264" y="-20" type="move" name="belowLC"/>
    </contour>
  </outline>
</glyph>
<glyph name="Lbelt" format="1">
  <advance width="585"/>
  <outline>
    <contour>
      <point x="137" y="266" type="curve" smooth="yes"/>
      <point x="362" y="266" type="line"/>
      <point x="362" y="336" type="line"/>
      <point x="123" y="336" type="line" smooth="yes"/>
      <point x="85" y="336"/>
      <point x="68" y="351"/>
      <point x="68" y="370" type="curve" smooth="yes"/>
      <point x="68" y="386"/>
      <point x="77" y="399"/>
      <point x="98" y="399" type="curve" smooth="yes"/>
      <point x="135" y="399"/>
      <point x="145" y="359"/>
      <point x="145" y="338" type="curve"/>
      <point x="197" y="320" type="line"/>
      <point x="197" y="359"/>
      <point x="186" y="468"/>
      <point x="92" y="468" type="curve" smooth="yes"/>
      <point x="32" y="468"/>
      <point x="-10" y="426"/>
      <point x="-10" y="369" type="curve" smooth="yes"/>
      <point x="-10" y="311"/>
      <point x="34" y="266"/>
    </contour>
    <contour>
      <point x="145" y="0" type="line"/>
      <point x="549" y="0" type="line"/>
      <point x="549" y="124" type="line"/>
      <point x="292" y="124" type="line"/>
      <point x="292" y="652" type="line"/>
      <point x="145" y="652" type="line"/>
    </contour>
    <contour>
      <point x="222" y="674" type="move" name="aboveUC"/>
    </contour>
    <contour>
      <point x="358" y="-22" type="move" name="belowLC"/>
    </contour>
  </outline>
</glyph>
<glyph name="Nhookleft.alt" format="1">
  <advance width="665"/>
  <outline>
    <contour>
      <point x="47" y="-182" type="curve" smooth="yes"/>
      <point x="175" y="-182"/>
      <point x="217" y="-91"/>
      <point x="217" y="18" type="curve" smooth="yes"/>
      <point x="217" y="231" type="line" smooth="yes"/>
      <point x="217" y="308"/>
      <point x="205" y="395"/>
      <point x="199" y="467" type="curve"/>
      <point x="203" y="467" type="line"/>
      <point x="267" y="325" type="line"/>
      <point x="437" y="0" type="line"/>
      <point x="588" y="0" type="line"/>
      <point x="588" y="652" type="line"/>
      <point x="448" y="652" type="line"/>
      <point x="448" y="422" type="line" smooth="yes"/>
      <point x="448" y="345"/>
      <point x="460" y="253"/>
      <point x="466" y="184" type="curve"/>
      <point x="462" y="184" type="line"/>
      <point x="398" y="328" type="line"/>
      <point x="228" y="652" type="line"/>
      <point x="77" y="652" type="line"/>
      <point x="77" y="0" type="line" smooth="yes"/>
      <point x="77" y="-36"/>
      <point x="64" y="-66"/>
      <point x="24" y="-66" type="curve" smooth="yes"/>
      <point x="11" y="-66"/>
      <point x="-1" y="-63"/>
      <point x="-15" y="-59" type="curve"/>
      <point x="-41" y="-168" type="line"/>
      <point x="-20" y="-176"/>
      <point x="5" y="-182"/>
    </contour>
    <contour>
      <point x="334" y="674" type="move" name="aboveUC"/>
    </contour>
  </outline>
</glyph>
<glyph name="Nhookleft" format="1">
  <advance width="728"/>
  <outline>
    <contour>
      <point x="82" y="-12" type="curve" smooth="yes"/>
      <point x="224" y="-12"/>
      <point x="286" y="100"/>
      <point x="286" y="332" type="curve" smooth="yes"/>
      <point x="286" y="455" type="line"/>
      <point x="319" y="508"/>
      <point x="373" y="537"/>
      <point x="414" y="537" type="curve" smooth="yes"/>
      <point x="493" y="537"/>
      <point x="514" y="473"/>
      <point x="514" y="354" type="curve" smooth="yes"/>
      <point x="514" y="0" type="line"/>
      <point x="662" y="0" type="line"/>
      <point x="662" y="395" type="line" smooth="yes"/>
      <point x="662" y="577"/>
      <point x="588" y="664"/>
      <point x="458" y="664" type="curve" smooth="yes"/>
      <point x="391" y="664"/>
      <point x="331" y="635"/>
      <point x="281" y="582" type="curve"/>
      <point x="281" y="652" type="line"/>
      <point x="139" y="652" type="line"/>
      <point x="139" y="331" type="line" smooth="yes"/>
      <point x="139" y="162"/>
      <point x="105" y="125"/>
      <point x="65" y="125" type="curve" smooth="yes"/>
      <point x="48" y="125"/>
      <point x="35" y="129"/>
      <point x="24" y="134" type="curve"/>
      <point x="-8" y="7" type="line"/>
      <point x="12" y="-6"/>
      <point x="51" y="-12"/>
    </contour>
    <contour>
      <point x="431" y="674" type="move" name="aboveUC"/>
    </contour>
  </outline>
</glyph>
<glyph name="Nlegrightlong" format="1">
  <advance width="670"/>
  <outline>
    <contour>
      <point x="466" y="-188" type="line"/>
      <point x="616" y="-188" type="line"/>
      <point x="616" y="331" type="line" smooth="yes"/>
      <point x="616" y="574"/>
      <point x="524" y="664"/>
      <point x="396" y="664" type="curve" smooth="yes"/>
      <point x="329" y="664"/>
      <point x="269" y="635"/>
      <point x="219" y="582" type="curve"/>
      <point x="219" y="652" type="line"/>
      <point x="77" y="652" type="line"/>
      <point x="77" y="0" type="line"/>
      <point x="224" y="0" type="line"/>
      <point x="224" y="455" type="line"/>
      <point x="257" y="508"/>
      <point x="311" y="537"/>
      <point x="352" y="537" type="curve" smooth="yes"/>
      <point x="425" y="537"/>
      <point x="466" y="481"/>
      <point x="466" y="331" type="curve" smooth="yes"/>
    </contour>
    <contour>
      <point x="370" y="674" type="move" name="aboveUC"/>
    </contour>
  </outline>
</glyph>
<glyph name="Ohorn.sc" format="1">
  <advance width="616"/>
  <outline>
    <component base="O.sc"/>
    <component base="horncmb" xOffset="433" yOffset="32"/>
    <contour>
      <point x="309" y="563" type="move" name="aboveUC"/>
    </contour>
    <contour>
      <point x="310" y="-20" type="move" name="belowLC"/>
    </contour>
  </outline>
</glyph>
<glyph name="Omegalatin" format="1">
  <advance width="850"/>
  <outline>
    <contour>
      <point x="272" y="-12" type="curve" smooth="yes"/>
      <point x="336" y="-12"/>
      <point x="392" y="20"/>
      <point x="421" y="110" type="curve"/>
      <point x="426" y="110" type="line"/>
      <point x="455" y="20"/>
      <point x="519" y="-12"/>
      <point x="583" y="-12" type="curve" smooth="yes"/>
      <point x="716" y="-12"/>
      <point x="790" y="115"/>
      <point x="790" y="337" type="curve" smooth="yes"/>
      <point x="790" y="469"/>
      <point x="754" y="570"/>
      <point x="704" y="664" type="curve"/>
      <point x="569" y="601" type="line"/>
      <point x="625" y="510"/>
      <point x="639" y="443"/>
      <point x="639" y="324" type="curve" smooth="yes"/>
      <point x="639" y="189"/>
      <point x="606" y="115"/>
      <point x="560" y="115" type="curve" smooth="yes"/>
      <point x="510" y="115"/>
      <point x="487" y="151"/>
      <point x="487" y="253" type="curve" smooth="yes"/>
      <point x="489" y="434" type="line"/>
      <point x="359" y="434" type="line"/>
      <point x="359" y="257" type="line" smooth="yes"/>
      <point x="359" y="163"/>
      <point x="333" y="116"/>
      <point x="285" y="116" type="curve" smooth="yes"/>
      <point x="235" y="116"/>
      <point x="210" y="189"/>
      <point x="210" y="295" type="curve" smooth="yes"/>
      <point x="210" y="419"/>
      <point x="226" y="503"/>
      <point x="278" y="597" type="curve"/>
      <point x="146" y="664" type="line"/>
      <point x="96" y="571"/>
      <point x="60" y="438"/>
      <point x="60" y="331" type="curve" smooth="yes"/>
      <point x="60" y="109"/>
      <point x="142" y="-12"/>
    </contour>
    <contour>
      <point x="425" y="674" type="move" name="aboveUC"/>
    </contour>
    <contour>
      <point x="425" y="-22" type="move" name="belowLC"/>
    </contour>
  </outline>
</glyph>
<glyph name="Omicron" format="1">
  <advance width="684"/>
  <outline>
    <component base="O"/>
    <contour>
      <point x="342" y="672" type="move" name="aboveUC"/>
    </contour>
  </outline>
</glyph>
<glyph name="Oopen" format="1">
  <advance width="582"/>
  <outline>
    <contour>
      <point x="239" y="-12" type="curve" smooth="yes"/>
      <point x="392" y="-12"/>
      <point x="536" y="91"/>
      <point x="536" y="322" type="curve" smooth="yes"/>
      <point x="536" y="553"/>
      <point x="398" y="664"/>
      <point x="242" y="664" type="curve" smooth="yes"/>
      <point x="156" y="664"/>
      <point x="80" y="624"/>
      <point x="32" y="579" type="curve"/>
      <point x="110" y="485" type="line"/>
      <point x="147" y="517"/>
      <point x="185" y="537"/>
      <point x="234" y="537" type="curve" smooth="yes"/>
      <point x="319" y="537"/>
      <point x="385" y="473"/>
      <point x="385" y="328" type="curve" smooth="yes"/>
      <point x="385" y="177"/>
      <point x="318" y="115"/>
      <point x="237" y="115" type="curve" smooth="yes"/>
      <point x="180" y="115"/>
      <point x="135" y="142"/>
      <point x="100" y="176" type="curve"/>
      <point x="22" y="84" type="line"/>
      <point x="80" y="21"/>
      <point x="154" y="-12"/>
    </contour>
    <contour>
      <point x="258" y="674" type="move" name="aboveUC"/>
    </contour>
    <contour>
      <point x="252" y="0" type="move" name="baseLC"/>
    </contour>
    <contour>
      <point x="252" y="-22" type="move" name="belowLC"/>
    </contour>
  </outline>
</glyph>
<glyph name="Oopen.sc" format="1">
  <advance width="520"/>
  <outline>
    <contour>
      <point x="208" y="-12" type="curve" smooth="yes"/>
      <point x="352" y="-12"/>
      <point x="474" y="77"/>
      <point x="474" y="260" type="curve" smooth="yes"/>
      <point x="474" y="439"/>
      <point x="345" y="540"/>
      <point x="199" y="540" type="curve" smooth="yes"/>
      <point x="129" y="540"/>
      <point x="68" y="508"/>
      <point x="28" y="470" type="curve"/>
      <point x="107" y="382" type="line"/>
      <point x="136" y="407"/>
      <point x="161" y="419"/>
      <point x="197" y="419" type="curve" smooth="yes"/>
      <point x="267" y="419"/>
      <point x="324" y="362"/>
      <point x="324" y="265" type="curve" smooth="yes"/>
      <point x="324" y="163"/>
      <point x="276" y="109"/>
      <point x="201" y="109" type="curve" smooth="yes"/>
      <point x="158" y="109"/>
      <point x="126" y="127"/>
      <point x="101" y="151" type="curve"/>
      <point x="22" y="65" type="line"/>
      <point x="70" y="13"/>
      <point x="136" y="-12"/>
    </contour>
    <contour>
      <point x="222" y="567" type="move" name="aboveUC"/>
    </contour>
    <contour>
      <point x="222" y="0" type="move" name="baseLC"/>
    </contour>
    <contour>
      <point x="222" y="-22" type="move" name="belowLC"/>
    </contour>
  </outline>
</glyph>
<glyph name="Oopen.sups" format="1">
  <advance width="390"/>
  <outline>
    <contour>
      <point x="158" y="367" type="curve" smooth="yes"/>
      <point x="269" y="367"/>
      <point x="361" y="443"/>
      <point x="361" y="587" type="curve" smooth="yes"/>
      <point x="361" y="730"/>
      <point x="263" y="815"/>
      <point x="150" y="815" type="curve" smooth="yes"/>
      <point x="95" y="815"/>
      <point x="48" y="790"/>
      <point x="20" y="758" type="curve"/>
      <point x="77" y="694" type="line"/>
      <point x="99" y="714"/>
      <point x="120" y="725"/>
      <point x="149" y="725" type="curve" smooth="yes"/>
      <point x="208" y="725"/>
      <point x="254" y="674"/>
      <point x="254" y="591" type="curve" smooth="yes"/>
      <point x="254" y="506"/>
      <point x="214" y="456"/>
      <point x="152" y="456" type="curve" smooth="yes"/>
      <point x="117" y="456"/>
      <point x="91" y="471"/>
      <point x="70" y="494" type="curve"/>
      <point x="13" y="433" type="line"/>
      <point x="50" y="389"/>
      <point x="99" y="367"/>
    </contour>
  </outline>
</glyph>
<glyph name="Oslash" format="1">
  <advance width="684"/>
  <outline>
    <contour>
      <point x="116" y="-41" type="line"/>
      <point x="660" y="634" type="line"/>
      <point x="584" y="693" type="line"/>
      <point x="40" y="17" type="line"/>
    </contour>
    <component base="O" xOffset="1"/>
    <contour>
      <point x="343" y="672" type="move" name="aboveUC"/>
    </contour>
    <contour>
      <point x="342" y="0" type="move" name="baseLC"/>
    </contour>
  </outline>
</glyph>
<glyph name="Phook" format="1">
  <advance width="747"/>
  <outline>
    <contour>
      <point x="451" y="652" type="line"/>
      <point x="227" y="652" type="line" smooth="yes"/>
      <point x="106" y="652"/>
      <point x="29" y="589"/>
      <point x="29" y="486" type="curve" smooth="yes"/>
      <point x="29" y="422"/>
      <point x="55" y="376"/>
      <point x="108" y="352" type="curve"/>
      <point x="156" y="420" type="line"/>
      <point x="138" y="433"/>
      <point x="127" y="449"/>
      <point x="127" y="477" type="curve" smooth="yes"/>
      <point x="127" y="513"/>
      <point x="153" y="537"/>
      <point x="195" y="537" type="curve" smooth="yes"/>
      <point x="372" y="537" type="line"/>
    </contour>
    <component base="P" xOffset="150"/>
    <contour>
      <point x="466" y="674" type="move" name="aboveUC"/>
    </contour>
    <contour>
      <point x="311" y="-22" type="move" name="belowLC"/>
    </contour>
  </outline>
</glyph>
<glyph name="Rho" format="1">
  <advance width="596"/>
  <outline>
    <component base="P"/>
    <contour>
      <point x="316" y="672" type="move" name="aboveUC"/>
    </contour>
  </outline>
</glyph>
<glyph name="Rstroke" format="1">
  <advance width="638"/>
  <outline>
    <contour>
      <point x="26" y="281" type="line"/>
      <point x="374" y="281" type="line"/>
      <point x="374" y="352" type="line"/>
      <point x="102" y="352" type="line"/>
      <point x="26" y="346" type="line"/>
    </contour>
    <component base="R" xOffset="25"/>
  </outline>
</glyph>
<glyph name="Rtail.alt" format="1">
  <advance width="613"/>
  <outline>
    <contour>
      <point x="77" y="21" type="line"/>
      <point x="224" y="0" type="line"/>
      <point x="224" y="235" type="line"/>
      <point x="312" y="235" type="line" smooth="yes"/>
      <point x="450" y="235"/>
      <point x="563" y="299"/>
      <point x="563" y="449" type="curve" smooth="yes"/>
      <point x="563" y="604"/>
      <point x="450" y="652"/>
      <point x="312" y="652" type="curve" smooth="yes"/>
      <point x="77" y="652" type="line"/>
    </contour>
    <contour>
      <point x="224" y="352" type="line"/>
      <point x="224" y="535" type="line"/>
      <point x="300" y="535" type="line" smooth="yes"/>
      <point x="377" y="535"/>
      <point x="419" y="513"/>
      <point x="419" y="449" type="curve" smooth="yes"/>
      <point x="419" y="385"/>
      <point x="377" y="352"/>
      <point x="300" y="352" type="curve" smooth="yes"/>
    </contour>
    <contour>
      <point x="430" y="0" type="line"/>
      <point x="595" y="0" type="line"/>
      <point x="387" y="368" type="line"/>
      <point x="285" y="273" type="line"/>
    </contour>
    <contour>
      <point x="224" y="605" type="line"/>
      <point x="77" y="652" type="line"/>
      <point x="77" y="18" type="line" smooth="yes"/>
      <point x="77" y="-91"/>
      <point x="126" y="-182"/>
      <point x="254" y="-182" type="curve" smooth="yes"/>
      <point x="296" y="-182"/>
      <point x="321" y="-176"/>
      <point x="342" y="-168" type="curve"/>
      <point x="316" y="-59" type="line"/>
      <point x="302" y="-63"/>
      <point x="291" y="-66"/>
      <point x="277" y="-66" type="curve" smooth="yes"/>
      <point x="238" y="-66"/>
      <point x="224" y="-36"/>
      <point x="224" y="0" type="curve" smooth="yes"/>
    </contour>
  </outline>
</glyph>
<glyph name="Rtail" format="1">
  <advance width="458"/>
  <outline>
    <contour>
      <point x="254" y="-12" type="curve" smooth="yes"/>
      <point x="296" y="-12"/>
      <point x="321" y="-6"/>
      <point x="342" y="2" type="curve"/>
      <point x="316" y="111" type="line"/>
      <point x="302" y="107"/>
      <point x="291" y="104"/>
      <point x="277" y="104" type="curve" smooth="yes"/>
      <point x="238" y="104"/>
      <point x="224" y="133"/>
      <point x="224" y="170" type="curve" smooth="yes"/>
      <point x="224" y="421" type="line"/>
      <point x="257" y="510"/>
      <point x="314" y="542"/>
      <point x="361" y="542" type="curve" smooth="yes"/>
      <point x="387" y="542"/>
      <point x="405" y="538"/>
      <point x="427" y="532" type="curve"/>
      <point x="457" y="652" type="line"/>
      <point x="439" y="660"/>
      <point x="419" y="665"/>
      <point x="383" y="665" type="curve" smooth="yes"/>
      <point x="320" y="665"/>
      <point x="253" y="625"/>
      <point x="208" y="545" type="curve"/>
      <point x="205" y="545" type="line"/>
      <point x="191" y="652" type="line"/>
      <point x="77" y="652" type="line"/>
      <point x="77" y="188" type="line" smooth="yes"/>
      <point x="77" y="79"/>
      <point x="126" y="-12"/>
    </contour>
  </outline>
</glyph>
<glyph name="Saltillo" format="1">
  <advance width="340"/>
  <outline>
    <contour>
      <point x="122" y="231" type="line"/>
      <point x="218" y="231" type="line"/>
      <point x="239" y="519" type="line"/>
      <point x="244" y="652" type="line"/>
      <point x="96" y="652" type="line"/>
      <point x="101" y="519" type="line"/>
    </contour>
  </outline>
</glyph>
<glyph name="Saltillo.sc" format="1">
  <advance width="340"/>
  <outline>
    <contour>
      <point x="122" y="231" type="line"/>
      <point x="218" y="231" type="line"/>
      <point x="239" y="425" type="line"/>
      <point x="244" y="528" type="line"/>
      <point x="96" y="528" type="line"/>
      <point x="101" y="425" type="line"/>
    </contour>
  </outline>
</glyph>
<glyph name="Tbar" format="1">
  <advance width="556"/>
  <outline>
    <contour>
      <point x="204" y="0" type="line"/>
      <point x="352" y="0" type="line"/>
      <point x="352" y="528" type="line"/>
      <point x="531" y="528" type="line"/>
      <point x="531" y="652" type="line"/>
      <point x="25" y="652" type="line"/>
      <point x="25" y="528" type="line"/>
      <point x="204" y="528" type="line"/>
    </contour>
    <contour>
      <point x="86" y="285" type="line"/>
      <point x="470" y="285" type="line"/>
      <point x="470" y="356" type="line"/>
      <point x="180" y="356" type="line"/>
      <point x="86" y="350" type="line"/>
    </contour>
    <contour>
      <point x="278" y="672" type="move" name="aboveUC"/>
    </contour>
    <contour>
      <point x="278" y="-20" type="move" name="belowLC"/>
    </contour>
  </outline>
</glyph>
<glyph name="Thook" format="1">
  <advance width="608"/>
  <outline>
    <contour>
      <point x="256" y="0" type="line"/>
      <point x="404" y="0" type="line"/>
      <point x="404" y="528" type="line"/>
      <point x="583" y="528" type="line"/>
      <point x="583" y="652" type="line"/>
      <point x="227" y="652" type="line" smooth="yes"/>
      <point x="106" y="652"/>
      <point x="29" y="589"/>
      <point x="29" y="486" type="curve" smooth="yes"/>
      <point x="29" y="422"/>
      <point x="55" y="376"/>
      <point x="108" y="352" type="curve"/>
      <point x="156" y="420" type="line"/>
      <point x="138" y="432"/>
      <point x="127" y="446"/>
      <point x="127" y="472" type="curve" smooth="yes"/>
      <point x="127" y="506"/>
      <point x="153" y="528"/>
      <point x="195" y="528" type="curve" smooth="yes"/>
      <point x="256" y="528" type="line"/>
    </contour>
  </outline>
</glyph>
<glyph name="Thook.sc" format="1">
  <advance width="555"/>
  <outline>
    <contour>
      <point x="109" y="253" type="curve"/>
      <point x="159" y="317" type="line"/>
      <point x="143" y="327"/>
      <point x="133" y="340"/>
      <point x="133" y="363" type="curve" smooth="yes"/>
      <point x="133" y="390"/>
      <point x="155" y="408"/>
      <point x="194" y="408" type="curve" smooth="yes"/>
      <point x="354" y="408" type="line"/>
      <point x="409" y="528" type="line"/>
      <point x="214" y="528" type="line" smooth="yes"/>
      <point x="106" y="528"/>
      <point x="36" y="470"/>
      <point x="36" y="377" type="curve" smooth="yes"/>
      <point x="36" y="317"/>
      <point x="61" y="276"/>
    </contour>
    <contour>
      <point x="236" y="0" type="line"/>
      <point x="384" y="0" type="line"/>
      <point x="384" y="408" type="line"/>
      <point x="530" y="408" type="line"/>
      <point x="530" y="528" type="line"/>
      <point x="214" y="528" type="line"/>
      <point x="194" y="408" type="line"/>
      <point x="236" y="408" type="line"/>
    </contour>
    <contour>
      <point x="310" y="564" type="move" name="aboveUC"/>
    </contour>
    <contour>
      <point x="309" y="0" type="move" name="baseLC"/>
    </contour>
    <contour>
      <point x="310" y="-22" type="move" name="belowLC"/>
    </contour>
  </outline>
</glyph>
<glyph name="Tretroflex" format="1">
  <advance width="556"/>
  <outline>
    <contour>
      <point x="383" y="-12" type="curve" smooth="yes"/>
      <point x="424" y="-12"/>
      <point x="450" y="-6"/>
      <point x="470" y="2" type="curve"/>
      <point x="444" y="111" type="line"/>
      <point x="431" y="107"/>
      <point x="418" y="104"/>
      <point x="405" y="104" type="curve" smooth="yes"/>
      <point x="365" y="104"/>
      <point x="352" y="133"/>
      <point x="352" y="170" type="curve" smooth="yes"/>
      <point x="352" y="528" type="line"/>
      <point x="531" y="528" type="line"/>
      <point x="531" y="652" type="line"/>
      <point x="25" y="652" type="line"/>
      <point x="25" y="528" type="line"/>
      <point x="204" y="528" type="line"/>
      <point x="205" y="188" type="line" smooth="yes"/>
      <point x="205" y="79"/>
      <point x="254" y="-12"/>
    </contour>
  </outline>
</glyph>
<glyph name="Tturned" format="1">
  <advance width="556"/>
  <outline>
    <component base="T" xScale="-1.0" yScale="-1.0" xOffset="556" yOffset="652"/>
    <contour>
      <point x="278" y="674" type="move" name="aboveUC"/>
    </contour>
    <contour>
      <point x="278" y="0" type="move" name="baseLC"/>
    </contour>
    <contour>
      <point x="278" y="-22" type="move" name="belowLC"/>
    </contour>
  </outline>
</glyph>
<glyph name="Ubar" format="1">
  <advance width="711"/>
  <outline>
    <contour>
      <point x="25" y="320" type="line"/>
      <point x="686" y="320" type="line"/>
      <point x="686" y="390" type="line"/>
      <point x="102" y="390" type="line"/>
      <point x="25" y="385" type="line"/>
    </contour>
    <component base="U" xOffset="24"/>
  </outline>
</glyph>
<glyph name="Upsilon" format="1">
  <advance width="525"/>
  <outline>
    <component base="Y"/>
    <contour>
      <point x="262" y="672" type="move" name="aboveUC"/>
    </contour>
  </outline>
</glyph>
<glyph name="Upsilonlatin" format="1">
  <advance width="711"/>
  <outline>
    <contour>
      <point x="44" y="652" type="line"/>
      <point x="44" y="533" type="line"/>
      <point x="154" y="533" type="line"/>
      <point x="154" y="529" type="line"/>
      <point x="111" y="485"/>
      <point x="60" y="402"/>
      <point x="60" y="294" type="curve" smooth="yes"/>
      <point x="60" y="113"/>
      <point x="178" y="-12"/>
      <point x="356" y="-12" type="curve" smooth="yes"/>
      <point x="533" y="-12"/>
      <point x="652" y="113"/>
      <point x="652" y="294" type="curve" smooth="yes"/>
      <point x="652" y="402"/>
      <point x="600" y="485"/>
      <point x="557" y="529" type="curve"/>
      <point x="557" y="533" type="line"/>
      <point x="667" y="533" type="line"/>
      <point x="667" y="652" type="line"/>
      <point x="400" y="652" type="line"/>
      <point x="400" y="545" type="line"/>
      <point x="467" y="483"/>
      <point x="501" y="410"/>
      <point x="501" y="309" type="curve" smooth="yes"/>
      <point x="501" y="195"/>
      <point x="446" y="115"/>
      <point x="356" y="115" type="curve" smooth="yes"/>
      <point x="265" y="115"/>
      <point x="211" y="195"/>
      <point x="211" y="309" type="curve" smooth="yes"/>
      <point x="211" y="410"/>
      <point x="244" y="483"/>
      <point x="311" y="545" type="curve"/>
      <point x="311" y="652" type="line"/>
    </contour>
  </outline>
</glyph>
<glyph name="Upsilonlatin.sc" format="1">
  <advance width="633"/>
  <outline>
    <contour>
      <point x="44" y="528" type="line"/>
      <point x="44" y="413" type="line"/>
      <point x="132" y="413" type="line"/>
      <point x="132" y="409" type="line"/>
      <point x="99" y="378"/>
      <point x="56" y="314"/>
      <point x="56" y="236" type="curve" smooth="yes"/>
      <point x="56" y="90"/>
      <point x="162" y="-12"/>
      <point x="316" y="-12" type="curve" smooth="yes"/>
      <point x="471" y="-12"/>
      <point x="577" y="90"/>
      <point x="577" y="236" type="curve" smooth="yes"/>
      <point x="577" y="314"/>
      <point x="534" y="378"/>
      <point x="501" y="409" type="curve"/>
      <point x="501" y="413" type="line"/>
      <point x="589" y="413" type="line"/>
      <point x="589" y="528" type="line"/>
      <point x="350" y="528" type="line"/>
      <point x="350" y="425" type="line"/>
      <point x="405" y="373"/>
      <point x="430" y="320"/>
      <point x="430" y="250" type="curve" smooth="yes"/>
      <point x="430" y="164"/>
      <point x="386" y="108"/>
      <point x="316" y="108" type="curve" smooth="yes"/>
      <point x="247" y="108"/>
      <point x="203" y="164"/>
      <point x="203" y="250" type="curve" smooth="yes"/>
      <point x="203" y="320"/>
      <point x="228" y="373"/>
      <point x="282" y="425" type="curve"/>
      <point x="282" y="528" type="line"/>
    </contour>
  </outline>
</glyph>
<glyph name="Vhook" format="1">
  <advance width="676"/>
  <outline>
    <contour>
      <point x="337" y="-12" type="curve" smooth="yes"/>
      <point x="531" y="-12"/>
      <point x="630" y="150"/>
      <point x="630" y="392" type="curve" smooth="yes"/>
      <point x="630" y="581"/>
      <point x="540" y="663"/>
      <point x="422" y="663" type="curve" smooth="yes"/>
      <point x="386" y="663"/>
      <point x="363" y="661"/>
      <point x="340" y="653" type="curve"/>
      <point x="363" y="531" type="line"/>
      <point x="372" y="534"/>
      <point x="382" y="537"/>
      <point x="395" y="537" type="curve" smooth="yes"/>
      <point x="455" y="537"/>
      <point x="478" y="482"/>
      <point x="478" y="363" type="curve" smooth="yes"/>
      <point x="478" y="209"/>
      <point x="432" y="115"/>
      <point x="345" y="115" type="curve" smooth="yes"/>
      <point x="266" y="115"/>
      <point x="218" y="165"/>
      <point x="218" y="279" type="curve" smooth="yes"/>
      <point x="218" y="652" type="line"/>
      <point x="77" y="652" type="line"/>
      <point x="77" y="285" type="line" smooth="yes"/>
      <point x="77" y="89"/>
      <point x="178" y="-12"/>
    </contour>
  </outline>
</glyph>
<glyph name="Yhook" format="1">
  <advance width="593"/>
  <outline>
    <contour>
      <point x="189" y="0" type="line"/>
      <point x="336" y="0" type="line"/>
      <point x="336" y="232" type="line"/>
      <point x="460" y="497" type="line" smooth="yes"/>
      <point x="469" y="516"/>
      <point x="480" y="533"/>
      <point x="499" y="533" type="curve" smooth="yes"/>
      <point x="518" y="533"/>
      <point x="533" y="517"/>
      <point x="541" y="501" type="curve"/>
      <point x="627" y="572" type="line"/>
      <point x="603" y="605"/>
      <point x="546" y="664"/>
      <point x="479" y="664" type="curve" smooth="yes"/>
      <point x="415" y="664"/>
      <point x="367" y="621"/>
      <point x="333" y="527" type="curve" smooth="yes"/>
      <point x="265" y="358" type="line"/>
      <point x="261" y="358" type="line"/>
      <point x="243" y="408"/>
      <point x="226" y="453"/>
      <point x="208" y="502" type="curve"/>
      <point x="150" y="652" type="line"/>
      <point x="-8" y="652" type="line"/>
      <point x="189" y="232" type="line"/>
    </contour>
  </outline>
</glyph>
<glyph name="alphalatin" format="1">
  <advance width="573"/>
  <outline>
    <contour>
      <point x="242" y="-12" type="curve" smooth="yes"/>
      <point x="292" y="-12"/>
      <point x="346" y="17"/>
      <point x="379" y="54" type="curve"/>
      <point x="383" y="54" type="line"/>
      <point x="398" y="21"/>
      <point x="429" y="-1"/>
      <point x="472" y="-1" type="curve" smooth="yes"/>
      <point x="498" y="-9"/>
      <point x="516" y="-9"/>
      <point x="535" y="-2" type="curve"/>
      <point x="537" y="-2"/>
      <point x="541" y="104"/>
      <point x="542" y="104" type="curve"/>
      <point x="537" y="102"/>
      <point x="533" y="107"/>
      <point x="531" y="107" type="curve" smooth="yes"/>
      <point x="520" y="107"/>
      <point x="512" y="113"/>
      <point x="512" y="135" type="curve" smooth="yes"/>
      <point x="510" y="135"/>
      <point x="508" y="417"/>
      <point x="508" y="420" type="curve"/>
      <point x="398" y="496" type="line"/>
      <point x="381" y="455" type="line"/>
      <point x="378" y="447" type="line"/>
      <point x="346" y="483"/>
      <point x="313" y="498"/>
      <point x="274" y="498" type="curve" smooth="yes"/>
      <point x="181" y="504"/>
      <point x="87" y="427"/>
      <point x="77" y="292" type="curve" smooth="yes"/>
      <point x="56" y="159"/>
      <point x="105" y="59"/>
    </contour>
    <contour>
      <point x="280" y="108" type="curve" smooth="yes"/>
      <point x="223" y="108"/>
      <point x="190" y="152"/>
      <point x="190" y="250" type="curve" smooth="yes"/>
      <point x="190" y="344"/>
      <point x="232" y="388"/>
      <point x="279" y="388" type="curve" smooth="yes"/>
      <point x="306" y="388"/>
      <point x="335" y="380"/>
      <point x="361" y="356" type="curve"/>
      <point x="361" y="153" type="line"/>
      <point x="337" y="120"/>
      <point x="312" y="108"/>
    </contour>
    <contour>
      <point x="299" y="518" type="move" name="aboveLC"/>
    </contour>
    <contour>
      <point x="286" y="0" type="move" name="baseLC"/>
    </contour>
    <contour>
      <point x="301" y="-22" type="move" name="belowLC"/>
    </contour>
  </outline>
</glyph>
<glyph name="betalatin" format="1">
  <advance width="600"/>
  <outline>
    <contour>
      <point x="209" y="-177" type="line"/>
      <point x="209" y="447" type="line" smooth="yes"/>
      <point x="209" y="549"/>
      <point x="238" y="597"/>
      <point x="296" y="597" type="curve" smooth="yes"/>
      <point x="336" y="597"/>
      <point x="372" y="571"/>
      <point x="372" y="517" type="curve" smooth="yes"/>
      <point x="372" y="461"/>
      <point x="336" y="406"/>
      <point x="268" y="406" type="curve" smooth="yes"/>
      <point x="255" y="406" type="line"/>
      <point x="255" y="304" type="line"/>
      <point x="328" y="304" type="line" smooth="yes"/>
      <point x="391" y="304"/>
      <point x="421" y="261"/>
      <point x="421" y="209" type="curve" smooth="yes"/>
      <point x="421" y="149"/>
      <point x="389" y="108"/>
      <point x="343" y="108" type="curve" smooth="yes"/>
      <point x="288" y="108"/>
      <point x="239" y="121"/>
      <point x="211" y="162" type="curve"/>
      <point x="205" y="51" type="line"/>
      <point x="256" y="10"/>
      <point x="311" y="-12"/>
      <point x="370" y="-12" type="curve" smooth="yes"/>
      <point x="457" y="-12"/>
      <point x="565" y="54"/>
      <point x="565" y="200" type="curve" smooth="yes"/>
      <point x="565" y="293"/>
      <point x="505" y="362"/>
      <point x="429" y="377" type="curve"/>
      <point x="429" y="381" type="line"/>
      <point x="483" y="415"/>
      <point x="513" y="464"/>
      <point x="513" y="531" type="curve" smooth="yes"/>
      <point x="513" y="656"/>
      <point x="406" y="713"/>
      <point x="296" y="713" type="curve" smooth="yes"/>
      <point x="137" y="713"/>
      <point x="64" y="605"/>
      <point x="64" y="466" type="curve" smooth="yes"/>
      <point x="64" y="-177" type="line"/>
    </contour>
  </outline>
</glyph>
<glyph name="brevecmb.cyr" format="1">
  <outline>
    <contour>
      <point x="0" y="572" type="curve" smooth="yes"/>
      <point x="115" y="572"/>
      <point x="169" y="636"/>
      <point x="172" y="736" type="curve"/>
      <point x="58" y="736" type="line"/>
      <point x="56" y="680"/>
      <point x="43" y="650"/>
      <point x="0" y="650" type="curve" smooth="yes"/>
      <point x="-43" y="650"/>
      <point x="-56" y="680"/>
      <point x="-58" y="736" type="curve"/>
      <point x="-172" y="736" type="line"/>
      <point x="-169" y="636"/>
      <point x="-115" y="572"/>
    </contour>
    <contour>
      <point x="0" y="516" type="move" name="_aboveLC"/>
    </contour>
    <contour>
      <point x="0" y="516" type="move" name="aboveLC"/>
    </contour>
  </outline>
</glyph>
<glyph name="bsmall" format="1">
  <advance width="528"/>
  <outline>
    <component base="ve"/>
    <contour>
      <point x="264" y="516" type="move" name="aboveLC"/>
    </contour>
    <contour>
      <point x="277" y="-20" type="move" name="belowLC"/>
    </contour>
  </outline>
</glyph>
<glyph name="caron.a" format="1">
  <advance width="41"/>
  <outline>
    <contour>
      <point x="-21" y="548" type="line"/>
      <point x="42" y="548" type="line"/>
      <point x="66" y="701" type="line"/>
      <point x="68" y="770" type="line"/>
      <point x="-27" y="770" type="line"/>
    </contour>
  </outline>
</glyph>
<glyph name="chilatin" format="1">
  <advance width="551"/>
  <outline>
    <contour>
      <point x="379" y="94" type="curve" smooth="yes"/>
      <point x="336" y="214" type="line"/>
      <point x="250" y="98" type="line"/>
      <point x="289" y="-19" type="line" smooth="yes"/>
      <point x="333" y="-155"/>
      <point x="391" y="-184"/>
      <point x="455" y="-184" type="curve" smooth="yes"/>
      <point x="492" y="-184"/>
      <point x="534" y="-175"/>
      <point x="555" y="-158" type="curve"/>
      <point x="513" y="-51" type="line"/>
      <point x="503" y="-60"/>
      <point x="486" y="-65"/>
      <point x="469" y="-65" type="curve" smooth="yes"/>
      <point x="447" y="-65"/>
      <point x="424" y="-31"/>
    </contour>
    <contour>
      <point x="172" y="-184" type="line"/>
      <point x="261" y="54" type="line"/>
      <point x="266" y="54" type="line"/>
      <point x="355" y="150" type="line"/>
      <point x="509" y="496" type="line"/>
      <point x="357" y="496" type="line"/>
      <point x="283" y="276" type="line"/>
      <point x="277" y="276" type="line"/>
      <point x="190" y="171" type="line"/>
      <point x="15" y="-184" type="line"/>
    </contour>
    <contour>
      <point x="166" y="230" type="curve" smooth="yes"/>
      <point x="208" y="112" type="line"/>
      <point x="294" y="229" type="line"/>
      <point x="256" y="343" type="line" smooth="yes"/>
      <point x="212" y="479"/>
      <point x="154" y="508"/>
      <point x="90" y="508" type="curve" smooth="yes"/>
      <point x="53" y="508"/>
      <point x="11" y="499"/>
      <point x="-10" y="482" type="curve"/>
      <point x="32" y="375" type="line"/>
      <point x="42" y="384"/>
      <point x="59" y="389"/>
      <point x="76" y="389" type="curve" smooth="yes"/>
      <point x="98" y="389"/>
      <point x="121" y="355"/>
    </contour>
  </outline>
</glyph>
<glyph name="chook" format="1">
  <advance width="467"/>
  <outline>
    <contour>
      <point x="322" y="451" type="curve"/>
      <point x="439" y="455" type="line"/>
      <point x="422" y="472"/>
      <point x="409" y="490"/>
      <point x="409" y="513" type="curve" smooth="yes"/>
      <point x="409" y="537"/>
      <point x="430" y="549"/>
      <point x="460" y="549" type="curve" smooth="yes"/>
      <point x="471" y="549"/>
      <point x="478" y="547"/>
      <point x="488" y="544" type="curve"/>
      <point x="514" y="652" type="line"/>
      <point x="494" y="658"/>
      <point x="472" y="664"/>
      <point x="433" y="664" type="curve" smooth="yes"/>
      <point x="346" y="664"/>
      <point x="295" y="609"/>
      <point x="295" y="542" type="curve" smooth="yes"/>
      <point x="295" y="512"/>
      <point x="308" y="482"/>
    </contour>
    <component base="c"/>
  </outline>
</glyph>
<glyph name="clickalveolar" format="1">
  <advance width="422"/>
  <outline>
    <contour>
      <point x="148" y="-184" type="line"/>
      <point x="279" y="-184" type="line"/>
      <point x="279" y="701" type="line"/>
      <point x="148" y="701" type="line"/>
    </contour>
    <contour>
      <point x="6" y="306" type="line"/>
      <point x="414" y="306" type="line"/>
      <point x="414" y="377" type="line"/>
      <point x="82" y="377" type="line"/>
      <point x="6" y="371" type="line"/>
    </contour>
    <contour>
      <point x="6" y="135" type="line"/>
      <point x="414" y="135" type="line"/>
      <point x="414" y="205" type="line"/>
      <point x="82" y="205" type="line"/>
      <point x="6" y="200" type="line"/>
    </contour>
  </outline>
</glyph>
<glyph name="clickdental" format="1">
  <advance width="268"/>
  <outline>
    <contour>
      <point x="86" y="-93" type="line"/>
      <point x="182" y="-93" type="line"/>
      <point x="182" y="701" type="line"/>
      <point x="86" y="701" type="line"/>
    </contour>
  </outline>
</glyph>
<glyph name="clickretroflex" format="1">
  <advance width="307"/>
  <outline>
    <contour>
      <point x="114" y="135" type="line"/>
      <point x="193" y="135" type="line"/>
      <point x="209" y="530" type="line"/>
      <point x="213" y="701" type="line"/>
      <point x="94" y="701" type="line"/>
      <point x="98" y="530" type="line"/>
    </contour>
    <contour>
      <point x="154" y="-105" type="curve" smooth="yes"/>
      <point x="195" y="-105"/>
      <point x="226" y="-72"/>
      <point x="226" y="-30" type="curve" smooth="yes"/>
      <point x="226" y="13"/>
      <point x="195" y="46"/>
      <point x="154" y="46" type="curve" smooth="yes"/>
      <point x="113" y="46"/>
      <point x="81" y="13"/>
      <point x="81" y="-30" type="curve" smooth="yes"/>
      <point x="81" y="-72"/>
      <point x="113" y="-105"/>
    </contour>
  </outline>
</glyph>
<glyph name="dezh" format="1">
  <advance width="936"/>
  <outline>
    <contour>
      <point x="416" y="381" type="line"/>
      <point x="624" y="381" type="line"/>
      <point x="624" y="496" type="line"/>
      <point x="416" y="496" type="line"/>
    </contour>
    <component base="ezh" xOffset="476"/>
    <component base="d"/>
    <contour>
      <point x="468" y="730" type="move" name="aboveUC"/>
    </contour>
    <contour>
      <point x="445" y="-20" type="move" name="belowLC"/>
    </contour>
  </outline>
</glyph>
<glyph name="dotlessi" format="1">
  <advance width="276"/>
  <outline>
    <contour>
      <point x="65" y="0" type="line"/>
      <point x="212" y="0" type="line"/>
      <point x="212" y="496" type="line"/>
      <point x="65" y="496" type="line"/>
    </contour>
    <contour>
      <point x="179" y="0" type="move" name="ogonekLC"/>
    </contour>
    <contour>
      <point x="138" y="516" type="move" name="aboveLC"/>
    </contour>
    <contour>
      <point x="138" y="0" type="move" name="baseLC"/>
    </contour>
    <contour>
      <point x="138" y="-20" type="move" name="belowLC"/>
    </contour>
  </outline>
</glyph>
<glyph name="dotlessjstroke" format="1">
  <advance width="321"/>
  <outline>
    <contour>
      <point x="12" y="223" type="line"/>
      <point x="304" y="223" type="line"/>
      <point x="304" y="294" type="line"/>
      <point x="92" y="294" type="line"/>
      <point x="12" y="288" type="line"/>
    </contour>
    <component base="dotlessj" xOffset="20"/>
    <contour>
      <point x="160" y="516" type="move" name="aboveLC"/>
    </contour>
    <contour>
      <point x="160" y="-20" type="move" name="belowLC"/>
    </contour>
  </outline>
</glyph>
<glyph name="dotlessjstrokehook" format="1">
  <advance width="321"/>
  <outline>
    <contour>
      <point x="12" y="223" type="line"/>
      <point x="304" y="223" type="line"/>
      <point x="304" y="294" type="line"/>
      <point x="92" y="294" type="line"/>
      <point x="12" y="288" type="line"/>
    </contour>
    <component base="esh" xOffset="20"/>
    <contour>
      <point x="160" y="730" type="move" name="aboveUC"/>
    </contour>
    <contour>
      <point x="160" y="-20" type="move" name="belowLC"/>
    </contour>
  </outline>
</glyph>
<glyph name="e" format="1">
  <advance width="518"/>
  <outline>
    <contour>
      <point x="287" y="-12" type="curve" smooth="yes"/>
      <point x="346" y="-12"/>
      <point x="412" y="9"/>
      <point x="463" y="44" type="curve"/>
      <point x="414" y="133" type="line"/>
      <point x="378" y="111"/>
      <point x="344" y="100"/>
      <point x="307" y="100" type="curve" smooth="yes"/>
      <point x="239" y="100"/>
      <point x="170" y="136"/>
      <point x="170" y="248" type="curve" smooth="yes"/>
      <point x="170" y="357"/>
      <point x="222" y="396"/>
      <point x="273" y="396" type="curve" smooth="yes"/>
      <point x="332" y="396"/>
      <point x="356" y="357"/>
      <point x="356" y="302" type="curve"/>
      <point x="150" y="302" type="line"/>
      <point x="152" y="205" type="line"/>
      <point x="475" y="205" type="line"/>
      <point x="478" y="217"/>
      <point x="481" y="244"/>
      <point x="481" y="270" type="curve" smooth="yes"/>
      <point x="481" y="405"/>
      <point x="411" y="508"/>
      <point x="270" y="508" type="curve" smooth="yes"/>
      <point x="151" y="508"/>
      <point x="36" y="409"/>
      <point x="36" y="248" type="curve" smooth="yes"/>
      <point x="36" y="84"/>
      <point x="145" y="-12"/>
    </contour>
    <contour>
      <point x="356" y="0" type="move" name="ogonekLC"/>
    </contour>
    <contour>
      <point x="276" y="516" type="move" name="aboveLC"/>
    </contour>
    <contour>
      <point x="266" y="0" type="move" name="baseLC"/>
    </contour>
    <contour>
      <point x="266" y="-20" type="move" name="belowLC"/>
    </contour>
  </outline>
</glyph>
<glyph name="en" format="1">
  <advance width="582"/>
  <outline>
    <contour>
      <point x="65" y="0" type="line"/>
      <point x="212" y="0" type="line"/>
      <point x="212" y="189" type="line"/>
      <point x="371" y="189" type="line"/>
      <point x="371" y="0" type="line"/>
      <point x="518" y="0" type="line"/>
      <point x="518" y="496" type="line"/>
      <point x="371" y="496" type="line"/>
      <point x="371" y="317" type="line"/>
      <point x="212" y="317" type="line"/>
      <point x="212" y="496" type="line"/>
      <point x="65" y="496" type="line"/>
    </contour>
    <contour>
      <point x="291" y="516" type="move" name="aboveLC"/>
    </contour>
  </outline>
</glyph>
<glyph name="endash.sups" format="1">
  <advance width="349"/>
  <outline>
    <contour>
      <point x="43" y="515" type="line"/>
      <point x="306" y="515" type="line"/>
      <point x="306" y="578" type="line"/>
      <point x="43" y="578" type="line"/>
    </contour>
  </outline>
</glyph>
<glyph name="eopen.sups" format="1">
  <advance width="303"/>
  <outline>
    <contour>
      <point x="174" y="367" type="curve" smooth="yes"/>
      <point x="215" y="367"/>
      <point x="250" y="375"/>
      <point x="290" y="400" type="curve"/>
      <point x="251" y="465" type="line"/>
      <point x="227" y="452"/>
      <point x="202" y="445"/>
      <point x="184" y="445" type="curve" smooth="yes"/>
      <point x="149" y="445"/>
      <point x="125" y="459"/>
      <point x="125" y="480" type="curve" smooth="yes"/>
      <point x="125" y="502"/>
      <point x="139" y="510"/>
      <point x="172" y="510" type="curve" smooth="yes"/>
      <point x="228" y="510" type="line"/>
      <point x="228" y="577" type="line"/>
      <point x="182" y="577" type="line" smooth="yes"/>
      <point x="154" y="577"/>
      <point x="140" y="586"/>
      <point x="140" y="604" type="curve" smooth="yes"/>
      <point x="140" y="622"/>
      <point x="155" y="635"/>
      <point x="181" y="635" type="curve" smooth="yes"/>
      <point x="205" y="635"/>
      <point x="223" y="629"/>
      <point x="245" y="617" type="curve"/>
      <point x="283" y="683" type="line"/>
      <point x="249" y="703"/>
      <point x="214" y="713"/>
      <point x="176" y="713" type="curve" smooth="yes"/>
      <point x="104" y="713"/>
      <point x="39" y="684"/>
      <point x="39" y="618" type="curve" smooth="yes"/>
      <point x="39" y="592"/>
      <point x="56" y="562"/>
      <point x="93" y="551" type="curve"/>
      <point x="93" y="548" type="line"/>
      <point x="52" y="537"/>
      <point x="24" y="514"/>
      <point x="24" y="469" type="curve" smooth="yes"/>
      <point x="24" y="402"/>
      <point x="99" y="367"/>
    </contour>
  </outline>
</glyph>
<glyph name="eopenreversedclosed" format="1">
  <advance width="566"/>
  <outline>
    <contour>
      <point x="298" y="-12" type="curve" smooth="yes"/>
      <point x="413" y="-12"/>
      <point x="522" y="41"/>
      <point x="522" y="141" type="curve" smooth="yes"/>
      <point x="522" y="208"/>
      <point x="479" y="245"/>
      <point x="418" y="260" type="curve"/>
      <point x="418" y="264" type="line"/>
      <point x="474" y="281"/>
      <point x="499" y="326"/>
      <point x="499" y="366" type="curve" smooth="yes"/>
      <point x="499" y="465"/>
      <point x="406" y="508"/>
      <point x="298" y="508" type="curve" smooth="yes"/>
      <point x="161" y="508"/>
      <point x="36" y="422"/>
      <point x="36" y="248" type="curve" smooth="yes"/>
      <point x="36" y="74"/>
      <point x="154" y="-12"/>
    </contour>
    <contour>
      <point x="298" y="100" type="curve" smooth="yes"/>
      <point x="226" y="100"/>
      <point x="187" y="144"/>
      <point x="187" y="248" type="curve" smooth="yes"/>
      <point x="187" y="351"/>
      <point x="225" y="396"/>
      <point x="294" y="396" type="curve" smooth="yes"/>
      <point x="329" y="396"/>
      <point x="355" y="376"/>
      <point x="355" y="346" type="curve" smooth="yes"/>
      <point x="355" y="317"/>
      <point x="335" y="302"/>
      <point x="294" y="302" type="curve" smooth="yes"/>
      <point x="263" y="302" type="line"/>
      <point x="263" y="205" type="line"/>
      <point x="310" y="205" type="line" smooth="yes"/>
      <point x="356" y="205"/>
      <point x="378" y="191"/>
      <point x="378" y="156" type="curve" smooth="yes"/>
      <point x="378" y="121"/>
      <point x="345" y="100"/>
    </contour>
    <contour>
      <point x="290" y="516" type="move" name="aboveLC"/>
    </contour>
    <contour>
      <point x="278" y="-20" type="move" name="belowLC"/>
    </contour>
  </outline>
</glyph>
<glyph name="er" format="1">
  <advance width="573"/>
  <outline>
    <component base="p"/>
    <contour>
      <point x="304" y="516" type="move" name="aboveLC"/>
    </contour>
  </outline>
</glyph>
<glyph name="es" format="1">
  <advance width="467"/>
  <outline>
    <component base="c"/>
    <contour>
      <point x="278" y="516" type="move" name="aboveLC"/>
    </contour>
  </outline>
</glyph>
<glyph name="eshcurl" format="1">
  <advance width="423"/>
  <outline>
    <contour>
      <point x="358" y="27" type="curve" smooth="yes"/>
      <point x="359" y="518" type="line" smooth="yes"/>
      <point x="359" y="573"/>
      <point x="375" y="598"/>
      <point x="422" y="598" type="curve" smooth="yes"/>
      <point x="432" y="598"/>
      <point x="440" y="595"/>
      <point x="450" y="591" type="curve"/>
      <point x="477" y="699" type="line"/>
      <point x="458" y="707"/>
      <point x="436" y="713"/>
      <point x="399" y="713" type="curve" smooth="yes"/>
      <point x="256" y="713"/>
      <point x="212" y="622"/>
      <point x="212" y="513" type="curve" smooth="yes"/>
      <point x="212" y="30" type="line" smooth="yes"/>
      <point x="212" y="-31"/>
      <point x="173" y="-90"/>
      <point x="116" y="-90" type="curve" smooth="yes"/>
      <point x="92" y="-90"/>
      <point x="71" y="-72"/>
      <point x="71" y="-51" type="curve" smooth="yes"/>
      <point x="71" y="-34"/>
      <point x="83" y="-15"/>
      <point x="112" y="-15" type="curve" smooth="yes"/>
      <point x="158" y="-15"/>
      <point x="218" y="-86"/>
      <point x="269" y="-198" type="curve"/>
      <point x="344" y="-159" type="line"/>
      <point x="273" y="-5"/>
      <point x="190" y="50"/>
      <point x="106" y="50" type="curve" smooth="yes"/>
      <point x="30" y="50"/>
      <point x="-21" y="5"/>
      <point x="-21" y="-67" type="curve" smooth="yes"/>
      <point x="-21" y="-142"/>
      <point x="36" y="-202"/>
      <point x="135" y="-202" type="curve" smooth="yes"/>
      <point x="262" y="-202"/>
      <point x="358" y="-99"/>
    </contour>
  </outline>
</glyph>
<glyph name="ezhcurl" format="1">
  <advance width="460"/>
  <outline>
    <contour>
      <point x="190" y="-196" type="curve" smooth="yes"/>
      <point x="331" y="-196"/>
      <point x="439" y="-97"/>
      <point x="439" y="32" type="curve" smooth="yes"/>
      <point x="439" y="133"/>
      <point x="377" y="214"/>
      <point x="267" y="222" type="curve"/>
      <point x="416" y="418" type="line"/>
      <point x="416" y="496" type="line"/>
      <point x="38" y="496" type="line"/>
      <point x="38" y="381" type="line"/>
      <point x="241" y="381" type="line"/>
      <point x="89" y="181" type="line"/>
      <point x="137" y="110" type="line"/>
      <point x="160" y="119"/>
      <point x="169" y="122"/>
      <point x="196" y="122" type="curve" smooth="yes"/>
      <point x="254" y="122"/>
      <point x="292" y="85"/>
      <point x="292" y="29" type="curve" smooth="yes"/>
      <point x="292" y="-34"/>
      <point x="244" y="-84"/>
      <point x="173" y="-84" type="curve" smooth="yes"/>
      <point x="143" y="-84"/>
      <point x="117" y="-65"/>
      <point x="117" y="-43" type="curve" smooth="yes"/>
      <point x="117" y="-27"/>
      <point x="130" y="-9"/>
      <point x="167" y="-9" type="curve" smooth="yes"/>
      <point x="220" y="-9"/>
      <point x="291" y="-81"/>
      <point x="337" y="-193" type="curve"/>
      <point x="424" y="-153" type="line"/>
      <point x="347" y="1"/>
      <point x="251" y="55"/>
      <point x="158" y="55" type="curve" smooth="yes"/>
      <point x="74" y="55"/>
      <point x="16" y="10"/>
      <point x="16" y="-61" type="curve" smooth="yes"/>
      <point x="16" y="-136"/>
      <point x="79" y="-196"/>
    </contour>
    <contour>
      <point x="204" y="525" type="move" name="aboveLC"/>
    </contour>
  </outline>
</glyph>
<glyph name="g.a" format="1">
  <advance width="583"/>
  <outline>
    <component base="gscript"/>
    <contour>
      <point x="304" y="516" type="move" name="aboveLC"/>
    </contour>
    <contour>
      <point x="301" y="-205" type="move" name="belowLC"/>
    </contour>
  </outline>
</glyph>
<glyph name="glottalstopinverted" format="1">
  <advance width="448"/>
  <outline>
    <contour>
      <point x="129" y="701" type="line"/>
      <point x="129" y="384" type="line"/>
      <point x="243" y="310"/>
      <point x="284" y="265"/>
      <point x="284" y="199" type="curve" smooth="yes"/>
      <point x="284" y="140"/>
      <point x="248" y="107"/>
      <point x="191" y="107" type="curve" smooth="yes"/>
      <point x="140" y="107"/>
      <point x="99" y="135"/>
      <point x="66" y="170" type="curve"/>
      <point x="-6" y="77" type="line"/>
      <point x="41" y="27"/>
      <point x="109" y="-12"/>
      <point x="207" y="-12" type="curve" smooth="yes"/>
      <point x="328" y="-12"/>
      <point x="431" y="56"/>
      <point x="431" y="193" type="curve" smooth="yes"/>
      <point x="431" y="303"/>
      <point x="367" y="368"/>
      <point x="276" y="439" type="curve"/>
      <point x="276" y="701" type="line"/>
    </contour>
  </outline>
</glyph>
<glyph name="glottalstopstroke" format="1">
  <advance width="476"/>
  <outline>
    <contour>
      <point x="144" y="0" type="line"/>
      <point x="291" y="0" type="line"/>
      <point x="291" y="246" type="line"/>
      <point x="460" y="246" type="line"/>
      <point x="460" y="317" type="line"/>
      <point x="330" y="317" type="line"/>
      <point x="395" y="374"/>
      <point x="447" y="434"/>
      <point x="447" y="508" type="curve" smooth="yes"/>
      <point x="447" y="644"/>
      <point x="344" y="713"/>
      <point x="223" y="713" type="curve" smooth="yes"/>
      <point x="125" y="713"/>
      <point x="57" y="673"/>
      <point x="9" y="623" type="curve"/>
      <point x="82" y="530" type="line"/>
      <point x="114" y="565"/>
      <point x="156" y="594"/>
      <point x="207" y="594" type="curve" smooth="yes"/>
      <point x="263" y="594"/>
      <point x="299" y="561"/>
      <point x="299" y="501" type="curve" smooth="yes"/>
      <point x="299" y="446"/>
      <point x="263" y="390"/>
      <point x="162" y="317" type="curve"/>
      <point x="87" y="317" type="line"/>
      <point x="11" y="311" type="line"/>
      <point x="11" y="246" type="line"/>
      <point x="144" y="246" type="line"/>
    </contour>
    <contour>
      <point x="238" y="730" type="move" name="aboveUC"/>
    </contour>
    <contour>
      <point x="238" y="-20" type="move" name="belowLC"/>
    </contour>
  </outline>
</glyph>
<glyph name="glottalstopstrokereversed" format="1">
  <advance width="476"/>
  <outline>
    <contour>
      <point x="186" y="0" type="line"/>
      <point x="333" y="0" type="line"/>
      <point x="333" y="246" type="line"/>
      <point x="466" y="246" type="line"/>
      <point x="466" y="317" type="line"/>
      <point x="314" y="317" type="line"/>
      <point x="213" y="390"/>
      <point x="177" y="446"/>
      <point x="177" y="501" type="curve" smooth="yes"/>
      <point x="177" y="561"/>
      <point x="217" y="594"/>
      <point x="280" y="594" type="curve" smooth="yes"/>
      <point x="326" y="594"/>
      <point x="365" y="565"/>
      <point x="394" y="530" type="curve"/>
      <point x="467" y="623" type="line"/>
      <point x="421" y="673"/>
      <point x="356" y="713"/>
      <point x="264" y="713" type="curve" smooth="yes"/>
      <point x="138" y="713"/>
      <point x="30" y="644"/>
      <point x="30" y="508" type="curve" smooth="yes"/>
      <point x="30" y="434"/>
      <point x="82" y="374"/>
      <point x="146" y="317" type="curve"/>
      <point x="93" y="317" type="line"/>
      <point x="17" y="311" type="line"/>
      <point x="17" y="246" type="line"/>
      <point x="186" y="246" type="line"/>
    </contour>
    <contour>
      <point x="238" y="730" type="move" name="aboveUC"/>
    </contour>
    <contour>
      <point x="238" y="-20" type="move" name="belowLC"/>
    </contour>
  </outline>
</glyph>
<glyph name="gsmallhook" format="1">
  <advance width="517"/>
  <outline>
    <contour>
      <point x="346" y="451" type="curve"/>
      <point x="463" y="448" type="line"/>
      <point x="446" y="467"/>
      <point x="432" y="486"/>
      <point x="432" y="511" type="curve" smooth="yes"/>
      <point x="432" y="536"/>
      <point x="454" y="549"/>
      <point x="484" y="549" type="curve" smooth="yes"/>
      <point x="495" y="549"/>
      <point x="501" y="547"/>
      <point x="512" y="544" type="curve"/>
      <point x="538" y="652" type="line"/>
      <point x="518" y="658"/>
      <point x="496" y="664"/>
      <point x="457" y="664" type="curve" smooth="yes"/>
      <point x="370" y="664"/>
      <point x="319" y="609"/>
      <point x="319" y="542" type="curve" smooth="yes"/>
      <point x="319" y="512"/>
      <point x="332" y="482"/>
    </contour>
    <contour>
      <point x="288" y="-12" type="curve" smooth="yes"/>
      <point x="365" y="-12"/>
      <point x="434" y="16"/>
      <point x="475" y="53" type="curve"/>
      <point x="475" y="297" type="line"/>
      <point x="266" y="297" type="line"/>
      <point x="266" y="199" type="line"/>
      <point x="350" y="199" type="line"/>
      <point x="350" y="114" type="line"/>
      <point x="337" y="105"/>
      <point x="319" y="100"/>
      <point x="299" y="100" type="curve" smooth="yes"/>
      <point x="231" y="100"/>
      <point x="185" y="153"/>
      <point x="185" y="246" type="curve" smooth="yes"/>
      <point x="185" y="350"/>
      <point x="242" y="396"/>
      <point x="301" y="396" type="curve" smooth="yes"/>
      <point x="346" y="396"/>
      <point x="367" y="381"/>
      <point x="397" y="360" type="curve"/>
      <point x="463" y="448" type="line"/>
      <point x="420" y="482"/>
      <point x="374" y="508"/>
      <point x="291" y="508" type="curve" smooth="yes"/>
      <point x="161" y="508"/>
      <point x="36" y="414"/>
      <point x="36" y="246" type="curve" smooth="yes"/>
      <point x="36" y="70"/>
      <point x="157" y="-12"/>
    </contour>
    <contour>
      <point x="319" y="518" type="move" name="aboveUC"/>
    </contour>
    <contour>
      <point x="321" y="-22" type="move" name="belowLC"/>
    </contour>
  </outline>
</glyph>
<glyph name="hfishhookturned" format="1">
  <advance width="681"/>
  <outline>
    <contour>
      <point x="469" y="-184" type="line"/>
      <point x="616" y="-184" type="line"/>
      <point x="616" y="496" type="line"/>
      <point x="469" y="496" type="line"/>
      <point x="469" y="168" type="line"/>
      <point x="440" y="128"/>
      <point x="414" y="113"/>
      <point x="377" y="113" type="curve" smooth="yes"/>
      <point x="335" y="113"/>
      <point x="315" y="136"/>
      <point x="315" y="207" type="curve" smooth="yes"/>
      <point x="315" y="310" type="line" smooth="yes"/>
      <point x="315" y="419"/>
      <point x="269" y="508"/>
      <point x="139" y="508" type="curve" smooth="yes"/>
      <point x="101" y="508"/>
      <point x="78" y="502"/>
      <point x="59" y="494" type="curve"/>
      <point x="85" y="386" type="line"/>
      <point x="96" y="391"/>
      <point x="105" y="393"/>
      <point x="116" y="393" type="curve" smooth="yes"/>
      <point x="151" y="393"/>
      <point x="168" y="369"/>
      <point x="168" y="315" type="curve"/>
      <point x="168" y="188" type="line" smooth="yes"/>
      <point x="168" y="64"/>
      <point x="214" y="-12"/>
      <point x="322" y="-12" type="curve" smooth="yes"/>
      <point x="390" y="-12"/>
      <point x="438" y="21"/>
      <point x="476" y="61" type="curve"/>
      <point x="469" y="-33" type="line"/>
    </contour>
    <contour>
      <point x="393" y="518" type="move" name="aboveLC"/>
    </contour>
    <contour>
      <point x="411" y="-22" type="move" name="belowLC"/>
    </contour>
  </outline>
</glyph>
<glyph name="hsmall" format="1">
  <advance width="582"/>
  <outline>
    <component base="en" xOffset="2"/>
    <contour>
      <point x="291" y="516" type="move" name="aboveLC"/>
    </contour>
    <contour>
      <point x="291" y="-20" type="move" name="belowLC"/>
    </contour>
  </outline>
</glyph>
<glyph name="hyphen.sups" format="1">
  <advance width="251"/>
  <outline>
    <contour>
      <point x="43" y="511" type="line"/>
      <point x="209" y="511" type="line"/>
      <point x="209" y="583" type="line"/>
      <point x="43" y="583" type="line"/>
    </contour>
  </outline>
</glyph>
<glyph name="i" format="1">
  <advance width="276"/>
  <outline>
    <component base="dotlessi"/>
    <component base="dotaccentcmb" xOffset="138"/>
    <contour>
      <point x="138" y="690" type="move" name="aboveUC"/>
    </contour>
    <contour>
      <point x="179" y="0" type="move" name="ogonekLC"/>
    </contour>
    <contour>
      <point x="138" y="0" type="move" name="baseLC"/>
    </contour>
    <contour>
      <point x="138" y="-20" type="move" name="belowLC"/>
    </contour>
  </outline>
</glyph>
<glyph name="istroke" format="1">
  <advance width="321"/>
  <outline>
    <contour>
      <point x="160" y="516" type="move" name="aboveUC"/>
    </contour>
    <contour>
      <point x="160" y="0" type="move" name="baseLC"/>
    </contour>
    <contour>
      <point x="160" y="-20" type="move" name="belowLC"/>
    </contour>
  </outline>
</glyph>
<glyph name="khook" format="1">
  <advance width="533"/>
  <outline>
    <contour>
      <point x="65" y="0" type="line"/>
      <point x="208" y="0" type="line"/>
      <point x="208" y="122" type="line"/>
      <point x="271" y="193" type="line"/>
      <point x="383" y="0" type="line"/>
      <point x="542" y="0" type="line"/>
      <point x="355" y="292" type="line"/>
      <point x="529" y="496" type="line"/>
      <point x="369" y="496" type="line"/>
      <point x="212" y="299" type="line"/>
      <point x="208" y="299" type="line"/>
      <point x="208" y="487" type="line" smooth="yes"/>
      <point x="208" y="569"/>
      <point x="240" y="597"/>
      <point x="290" y="597" type="curve" smooth="yes"/>
      <point x="306" y="597"/>
      <point x="325" y="593"/>
      <point x="341" y="587" type="curve"/>
      <point x="368" y="695" type="line"/>
      <point x="346" y="703"/>
      <point x="310" y="713"/>
      <point x="269" y="713" type="curve" smooth="yes"/>
      <point x="120" y="713"/>
      <point x="65" y="615"/>
      <point x="65" y="500" type="curve" smooth="yes"/>
    </contour>
    <contour>
      <point x="269" y="730" type="move" name="aboveLC"/>
    </contour>
    <contour>
      <point x="295" y="-22" type="move" name="belowLC"/>
    </contour>
  </outline>
</glyph>
<glyph name="l.a" format="1">
  <advance width="276"/>
  <outline>
    <contour>
      <point x="65" y="0" type="line"/>
      <point x="212" y="0" type="line"/>
      <point x="212" y="701" type="line"/>
      <point x="65" y="701" type="line"/>
    </contour>
    <contour>
      <point x="138" y="690" type="move" name="aboveUC"/>
    </contour>
    <contour>
      <point x="138" y="557" type="move" name="aboveLC"/>
    </contour>
    <contour>
      <point x="138" y="-20" type="move" name="belowLC"/>
    </contour>
  </outline>
</glyph>
<glyph name="lbeltretroflex" format="1">
  <advance width="377"/>
  <outline>
    <contour>
      <point x="137" y="292" type="curve" smooth="yes"/>
      <point x="362" y="292" type="line"/>
      <point x="362" y="363" type="line"/>
      <point x="123" y="363" type="line" smooth="yes"/>
      <point x="85" y="363"/>
      <point x="68" y="378"/>
      <point x="68" y="396" type="curve" smooth="yes"/>
      <point x="68" y="413"/>
      <point x="77" y="425"/>
      <point x="98" y="425" type="curve" smooth="yes"/>
      <point x="135" y="425"/>
      <point x="145" y="386"/>
      <point x="145" y="365" type="curve"/>
      <point x="197" y="347" type="line"/>
      <point x="197" y="385"/>
      <point x="186" y="494"/>
      <point x="92" y="494" type="curve" smooth="yes"/>
      <point x="32" y="494"/>
      <point x="-10" y="452"/>
      <point x="-10" y="396" type="curve" smooth="yes"/>
      <point x="-10" y="338"/>
      <point x="34" y="292"/>
    </contour>
    <component base="lretroflex" xOffset="80"/>
  </outline>
</glyph>
<glyph name="lezh" format="1">
  <advance width="640"/>
  <outline>
    <contour>
      <point x="119" y="381" type="line"/>
      <point x="328" y="381" type="line"/>
      <point x="328" y="496" type="line"/>
      <point x="119" y="496" type="line"/>
    </contour>
    <component base="l.a"/>
    <component base="ezh" xOffset="179"/>
    <contour>
      <point x="138" y="690" type="move" name="aboveUC"/>
    </contour>
    <contour>
      <point x="138" y="-20" type="move" name="belowLC"/>
    </contour>
  </outline>
</glyph>
<glyph name="liraturkish" format="1">
  <advance width="528"/>
  <outline>
    <contour>
      <point x="90" y="-12" type="line"/>
      <point x="349" y="-19"/>
      <point x="499" y="79"/>
      <point x="499" y="261" type="curve" smooth="yes"/>
      <point x="499" y="272"/>
      <point x="497" y="292"/>
      <point x="492" y="312" type="curve"/>
      <point x="371" y="284" type="line"/>
      <point x="373" y="269"/>
      <point x="373" y="260"/>
      <point x="373" y="254" type="curve" smooth="yes"/>
      <point x="373" y="183"/>
      <point x="311" y="133"/>
      <point x="237" y="125" type="curve"/>
      <point x="237" y="292" type="line"/>
      <point x="399" y="378" type="line"/>
      <point x="366" y="442" type="line"/>
      <point x="237" y="373" type="line"/>
      <point x="237" y="428" type="line"/>
      <point x="399" y="513" type="line"/>
      <point x="366" y="578" type="line"/>
      <point x="237" y="509" type="line"/>
      <point x="237" y="635" type="line"/>
      <point x="90" y="635" type="line"/>
      <point x="90" y="437" type="line"/>
      <point x="-3" y="388" type="line"/>
      <point x="30" y="323" type="line"/>
      <point x="90" y="356" type="line"/>
      <point x="90" y="301" type="line"/>
      <point x="-3" y="252" type="line"/>
      <point x="30" y="187" type="line"/>
      <point x="90" y="220" type="line"/>
    </contour>
  </outline>
</glyph>
<glyph name="lmiddletilde" format="1">
  <advance width="286"/>
  <outline>
    <component base="l"/>
    <component base="tildeoverlaycmb" xOffset="138" yOffset="48"/>
    <contour>
      <point x="138" y="730" type="move" name="aboveUC"/>
    </contour>
    <contour>
      <point x="149" y="557" type="move" name="aboveLC"/>
    </contour>
    <contour>
      <point x="164" y="-20" type="move" name="belowLC"/>
    </contour>
  </outline>
</glyph>
<glyph name="lslash.a" format="1">
  <advance width="299"/>
  <outline>
    <contour>
      <point x="30" y="250" type="line"/>
      <point x="83" y="281" type="line"/>
      <point x="193" y="332" type="line"/>
      <point x="320" y="403" type="line"/>
      <point x="270" y="494" type="line"/>
      <point x="193" y="450" type="line"/>
      <point x="83" y="399" type="line"/>
      <point x="-21" y="341" type="line"/>
    </contour>
    <component base="l.a" xOffset="10"/>
  </outline>
</glyph>
<glyph name="lsmall" format="1">
  <advance width="432"/>
  <outline>
    <contour>
      <point x="65" y="0" type="line"/>
      <point x="406" y="0" type="line"/>
      <point x="406" y="115" type="line"/>
      <point x="212" y="115" type="line"/>
      <point x="212" y="496" type="line"/>
      <point x="65" y="496" type="line"/>
    </contour>
    <contour>
      <point x="143" y="563" type="move" name="aboveUC"/>
    </contour>
    <contour>
      <point x="216" y="516" type="move" name="aboveLC"/>
    </contour>
    <contour>
      <point x="252" y="-20" type="move" name="belowLC"/>
    </contour>
  </outline>
</glyph>
<glyph name="mturned" format="1">
  <advance width="857"/>
  <outline>
    <component base="m" xScale="-1.0" yScale="-1.0" xOffset="860" yOffset="496"/>
    <contour>
      <point x="439" y="516" type="move" name="aboveLC"/>
    </contour>
    <contour>
      <point x="439" y="-20" type="move" name="belowLC"/>
    </contour>
  </outline>
</glyph>
<glyph name="omegalatinclosed" format="1">
  <advance width="746"/>
  <outline>
    <contour>
      <point x="234" y="-12" type="curve" smooth="yes"/>
      <point x="293" y="-12"/>
      <point x="343" y="13"/>
      <point x="370" y="82" type="curve"/>
      <point x="374" y="82" type="line"/>
      <point x="401" y="13"/>
      <point x="458" y="-12"/>
      <point x="517" y="-12" type="curve" smooth="yes"/>
      <point x="639" y="-12"/>
      <point x="706" y="72"/>
      <point x="706" y="217" type="curve" smooth="yes"/>
      <point x="706" y="349"/>
      <point x="609" y="508"/>
      <point x="374" y="508" type="curve" smooth="yes"/>
      <point x="111" y="508"/>
      <point x="40" y="312"/>
      <point x="40" y="226" type="curve" smooth="yes"/>
      <point x="40" y="55"/>
      <point x="115" y="-12"/>
    </contour>
    <contour>
      <point x="238" y="107" type="curve" smooth="yes"/>
      <point x="198" y="107"/>
      <point x="179" y="154"/>
      <point x="179" y="224" type="curve" smooth="yes"/>
      <point x="179" y="309"/>
      <point x="250" y="394"/>
      <point x="370" y="394" type="curve" smooth="yes"/>
      <point x="480" y="394"/>
      <point x="567" y="330"/>
      <point x="567" y="233" type="curve" smooth="yes"/>
      <point x="567" y="156"/>
      <point x="542" y="107"/>
      <point x="502" y="107" type="curve" smooth="yes"/>
      <point x="471" y="107"/>
      <point x="445" y="130"/>
      <point x="445" y="200" type="curve" smooth="yes"/>
      <point x="445" y="275" type="line"/>
      <point x="298" y="275" type="line"/>
      <point x="298" y="200" type="line" smooth="yes"/>
      <point x="298" y="137"/>
      <point x="277" y="107"/>
    </contour>
    <contour>
      <point x="372" y="518" type="move" name="aboveLC"/>
    </contour>
    <contour>
      <point x="372" y="-22" type="move" name="belowLC"/>
    </contour>
  </outline>
</glyph>
<glyph name="oopen.sups" format="1">
  <advance width="313"/>
  <outline>
    <contour>
      <point x="126" y="367" type="curve" smooth="yes"/>
      <point x="220" y="367"/>
      <point x="289" y="431"/>
      <point x="289" y="540" type="curve" smooth="yes"/>
      <point x="289" y="648"/>
      <point x="211" y="713"/>
      <point x="121" y="713" type="curve" smooth="yes"/>
      <point x="71" y="713"/>
      <point x="34" y="695"/>
      <point x="17" y="678" type="curve"/>
      <point x="65" y="612" type="line"/>
      <point x="79" y="624"/>
      <point x="94" y="631"/>
      <point x="112" y="631" type="curve" smooth="yes"/>
      <point x="153" y="631"/>
      <point x="183" y="594"/>
      <point x="183" y="540" type="curve" smooth="yes"/>
      <point x="183" y="486"/>
      <point x="155" y="449"/>
      <point x="113" y="449" type="curve" smooth="yes"/>
      <point x="85" y="449"/>
      <point x="69" y="460"/>
      <point x="55" y="472" type="curve"/>
      <point x="13" y="405" type="line"/>
      <point x="35" y="387"/>
      <point x="73" y="367"/>
    </contour>
  </outline>
</glyph>
<glyph name="overlinecmb" format="1">
  <outline>
    <component base="macroncmb"/>
    <contour>
      <point x="0" y="516" type="move" name="_aboveLC"/>
    </contour>
    <contour>
      <point x="0" y="516" type="move" name="aboveLC"/>
    </contour>
  </outline>
</glyph>
<glyph name="pe" format="1">
  <advance width="574"/>
  <outline>
    <contour>
      <point x="65" y="0" type="line"/>
      <point x="212" y="0" type="line"/>
      <point x="212" y="381" type="line"/>
      <point x="362" y="381" type="line"/>
      <point x="362" y="0" type="line"/>
      <point x="509" y="0" type="line"/>
      <point x="509" y="496" type="line"/>
      <point x="65" y="496" type="line"/>
    </contour>
    <contour>
      <point x="287" y="516" type="move" name="aboveLC"/>
    </contour>
  </outline>
</glyph>
<glyph name="philatin" format="1">
  <advance width="738"/>
  <outline>
    <contour>
      <point x="316" y="-8" type="curve"/>
      <point x="308" y="102" type="line"/>
      <point x="235" y="103"/>
      <point x="187" y="153"/>
      <point x="187" y="248" type="curve" smooth="yes"/>
      <point x="187" y="343"/>
      <point x="235" y="393"/>
      <point x="308" y="394" type="curve"/>
      <point x="316" y="504" type="line"/>
      <point x="172" y="503"/>
      <point x="36" y="413"/>
      <point x="36" y="248" type="curve" smooth="yes"/>
      <point x="36" y="83"/>
      <point x="172" y="-7"/>
    </contour>
    <contour>
      <point x="422" y="-8" type="line"/>
      <point x="565" y="-7"/>
      <point x="702" y="83"/>
      <point x="702" y="248" type="curve" smooth="yes"/>
      <point x="702" y="413"/>
      <point x="566" y="503"/>
      <point x="422" y="504" type="curve"/>
      <point x="430" y="394" type="line"/>
      <point x="505" y="393"/>
      <point x="551" y="343"/>
      <point x="551" y="248" type="curve" smooth="yes"/>
      <point x="551" y="153"/>
      <point x="503" y="103"/>
      <point x="430" y="102" type="curve"/>
    </contour>
    <contour>
      <point x="302" y="-184" type="line"/>
      <point x="436" y="-184" type="line"/>
      <point x="436" y="701" type="line"/>
      <point x="302" y="701" type="line"/>
    </contour>
    <contour>
      <point x="369" y="730" type="move" name="aboveUC"/>
    </contour>
    <contour>
      <point x="369" y="-20" type="move" name="belowLC"/>
    </contour>
  </outline>
</glyph>
<glyph name="phook" format="1">
  <advance width="573"/>
  <outline>
    <contour>
      <point x="65" y="-184" type="line"/>
      <point x="212" y="-184" type="line"/>
      <point x="212" y="-39" type="line"/>
      <point x="207" y="40" type="line"/>
      <point x="242" y="7"/>
      <point x="282" y="-12"/>
      <point x="325" y="-12" type="curve" smooth="yes"/>
      <point x="432" y="-12"/>
      <point x="534" y="82"/>
      <point x="534" y="248" type="curve" smooth="yes"/>
      <point x="534" y="396"/>
      <point x="459" y="492"/>
      <point x="339" y="492" type="curve" smooth="yes"/>
      <point x="293" y="492"/>
      <point x="247" y="471"/>
      <point x="208" y="437" type="curve"/>
      <point x="210" y="504" type="line"/>
      <point x="215" y="570"/>
      <point x="240" y="597"/>
      <point x="290" y="597" type="curve" smooth="yes"/>
      <point x="306" y="597"/>
      <point x="325" y="593"/>
      <point x="341" y="587" type="curve"/>
      <point x="368" y="695" type="line"/>
      <point x="346" y="703"/>
      <point x="310" y="713"/>
      <point x="269" y="713" type="curve" smooth="yes"/>
      <point x="120" y="713"/>
      <point x="65" y="615"/>
      <point x="65" y="500" type="curve" smooth="yes"/>
    </contour>
    <contour>
      <point x="291" y="108" type="curve" smooth="yes"/>
      <point x="266" y="108"/>
      <point x="238" y="116"/>
      <point x="212" y="140" type="curve"/>
      <point x="212" y="327" type="line"/>
      <point x="241" y="358"/>
      <point x="267" y="371"/>
      <point x="297" y="371" type="curve" smooth="yes"/>
      <point x="356" y="371"/>
      <point x="383" y="329"/>
      <point x="383" y="246" type="curve" smooth="yes"/>
      <point x="383" y="149"/>
      <point x="342" y="108"/>
    </contour>
    <contour>
      <point x="269" y="730" type="move" name="aboveLC"/>
    </contour>
    <contour>
      <point x="130" y="-218" type="move" name="belowLC"/>
    </contour>
  </outline>
</glyph>
<glyph name="qhook" format="1">
  <advance width="578"/>
  <outline>
    <contour>
      <point x="508" y="466" type="line" smooth="yes"/>
      <point x="508" y="513"/>
      <point x="523" y="538"/>
      <point x="561" y="538" type="curve" smooth="yes"/>
      <point x="568" y="538"/>
      <point x="575" y="537"/>
      <point x="581" y="534" type="curve"/>
      <point x="607" y="643" type="line"/>
      <point x="590" y="649"/>
      <point x="570" y="653"/>
      <point x="538" y="653" type="curve" smooth="yes"/>
      <point x="410" y="653"/>
      <point x="365" y="570"/>
      <point x="365" y="490" type="curve"/>
      <point x="365" y="457" type="line"/>
      <point x="331" y="489"/>
      <point x="299" y="508"/>
      <point x="245" y="508" type="curve" smooth="yes"/>
      <point x="140" y="508"/>
      <point x="39" y="410"/>
      <point x="39" y="248" type="curve" smooth="yes"/>
      <point x="39" y="86"/>
      <point x="119" y="-12"/>
      <point x="242" y="-12" type="curve" smooth="yes"/>
      <point x="287" y="-12"/>
      <point x="334" y="11"/>
      <point x="367" y="43" type="curve"/>
      <point x="361" y="-33" type="line"/>
      <point x="361" y="-184" type="line"/>
      <point x="508" y="-184" type="line"/>
    </contour>
    <contour>
      <point x="280" y="108" type="curve" smooth="yes"/>
      <point x="223" y="108"/>
      <point x="190" y="152"/>
      <point x="190" y="250" type="curve" smooth="yes"/>
      <point x="190" y="344"/>
      <point x="232" y="388"/>
      <point x="279" y="388" type="curve" smooth="yes"/>
      <point x="306" y="388"/>
      <point x="335" y="380"/>
      <point x="361" y="356" type="curve"/>
      <point x="361" y="153" type="line"/>
      <point x="337" y="120"/>
      <point x="312" y="108"/>
    </contour>
    <contour>
      <point x="292" y="518" type="move" name="aboveLC"/>
    </contour>
    <contour>
      <point x="430" y="-218" type="move" name="belowLC"/>
    </contour>
  </outline>
</glyph>
<glyph name="rfishhook" format="1">
  <advance width="380"/>
  <outline>
    <contour>
      <point x="65" y="0" type="line"/>
      <point x="212" y="0" type="line"/>
      <point x="212" y="272" type="line" smooth="yes"/>
      <point x="212" y="353"/>
      <point x="256" y="381"/>
      <point x="290" y="381" type="curve" smooth="yes"/>
      <point x="319" y="381"/>
      <point x="330" y="379"/>
      <point x="358" y="371" type="curve"/>
      <point x="381" y="494" type="line"/>
      <point x="356" y="502"/>
      <point x="318" y="508"/>
      <point x="269" y="508" type="curve" smooth="yes"/>
      <point x="125" y="508"/>
      <point x="65" y="416"/>
      <point x="65" y="304" type="curve" smooth="yes"/>
    </contour>
    <contour>
      <point x="198" y="516" type="move" name="aboveLC"/>
    </contour>
    <contour>
      <point x="190" y="-20" type="move" name="belowLC"/>
    </contour>
  </outline>
</glyph>
<glyph name="rfishhookreversed" format="1">
  <advance width="380"/>
  <outline>
    <contour>
      <point x="168" y="-184" type="line"/>
      <point x="315" y="-184" type="line"/>
      <point x="315" y="304" type="line" smooth="yes"/>
      <point x="315" y="416"/>
      <point x="255" y="508"/>
      <point x="111" y="508" type="curve" smooth="yes"/>
      <point x="62" y="508"/>
      <point x="24" y="502"/>
      <point x="-1" y="494" type="curve"/>
      <point x="22" y="371" type="line"/>
      <point x="50" y="379"/>
      <point x="61" y="381"/>
      <point x="90" y="381" type="curve" smooth="yes"/>
      <point x="124" y="381"/>
      <point x="168" y="353"/>
      <point x="168" y="272" type="curve" smooth="yes"/>
    </contour>
    <contour>
      <point x="183" y="517" type="move" name="aboveLC"/>
    </contour>
  </outline>
</glyph>
<glyph name="rfishhookreversedtail" format="1">
  <advance width="380"/>
  <outline>
    <contour>
      <point x="335" y="-187" type="curve" smooth="yes"/>
      <point x="372" y="-187"/>
      <point x="395" y="-181"/>
      <point x="413" y="-173" type="curve"/>
      <point x="387" y="-65" type="line"/>
      <point x="377" y="-69"/>
      <point x="368" y="-71"/>
      <point x="358" y="-71" type="curve" smooth="yes"/>
      <point x="327" y="-71"/>
      <point x="315" y="-50"/>
      <point x="315" y="-1" type="curve" smooth="yes"/>
      <point x="315" y="304" type="line" smooth="yes"/>
      <point x="315" y="416"/>
      <point x="255" y="508"/>
      <point x="111" y="508" type="curve" smooth="yes"/>
      <point x="62" y="508"/>
      <point x="24" y="502"/>
      <point x="-1" y="494" type="curve"/>
      <point x="22" y="371" type="line"/>
      <point x="50" y="379"/>
      <point x="61" y="381"/>
      <point x="90" y="381" type="curve" smooth="yes"/>
      <point x="124" y="381"/>
      <point x="168" y="353"/>
      <point x="168" y="272" type="curve" smooth="yes"/>
      <point x="168" y="4" type="line" smooth="yes"/>
      <point x="168" y="-100"/>
      <point x="208" y="-187"/>
    </contour>
    <contour>
      <point x="182" y="517" type="move" name="aboveLC"/>
    </contour>
  </outline>
</glyph>
<glyph name="rlonglegturned" format="1">
  <advance width="398"/>
  <outline>
    <contour>
      <point x="58" y="-12" type="curve" smooth="yes"/>
      <point x="109" y="-12"/>
      <point x="163" y="20"/>
      <point x="199" y="87" type="curve"/>
      <point x="203" y="87" type="line"/>
      <point x="214" y="0" type="line"/>
      <point x="334" y="0" type="line"/>
      <point x="334" y="701" type="line"/>
      <point x="187" y="701" type="line"/>
      <point x="187" y="209" type="line"/>
      <point x="160" y="141"/>
      <point x="115" y="117"/>
      <point x="77" y="117" type="curve" smooth="yes"/>
      <point x="56" y="117"/>
      <point x="41" y="121"/>
      <point x="24" y="125" type="curve"/>
      <point x="-1" y="-2" type="line"/>
      <point x="14" y="-8"/>
      <point x="30" y="-12"/>
    </contour>
    <contour>
      <point x="199" y="730" type="move" name="aboveUC"/>
    </contour>
    <contour>
      <point x="181" y="516" type="move" name="aboveLC"/>
    </contour>
    <contour>
      <point x="73" y="-20" type="move" name="belowLC"/>
    </contour>
  </outline>
</glyph>
<glyph name="rsmall" format="1">
  <advance width="532"/>
  <outline>
    <contour>
      <point x="65" y="0" type="line"/>
      <point x="212" y="0" type="line"/>
      <point x="212" y="162" type="line"/>
      <point x="268" y="162" type="line"/>
      <point x="363" y="162"/>
      <point x="474" y="208"/>
      <point x="474" y="332" type="curve" smooth="yes"/>
      <point x="474" y="456"/>
      <point x="383" y="496"/>
      <point x="269" y="496" type="curve" smooth="yes"/>
      <point x="65" y="496" type="line"/>
    </contour>
    <contour>
      <point x="212" y="261" type="line"/>
      <point x="212" y="388" type="line"/>
      <point x="251" y="388" type="line" smooth="yes"/>
      <point x="303" y="388"/>
      <point x="329" y="368"/>
      <point x="329" y="328" type="curve" smooth="yes"/>
      <point x="329" y="288"/>
      <point x="303" y="261"/>
      <point x="251" y="261" type="curve" smooth="yes"/>
    </contour>
    <contour>
      <point x="354" y="0" type="line"/>
      <point x="517" y="0" type="line"/>
      <point x="364" y="240" type="line"/>
      <point x="244" y="200" type="line"/>
    </contour>
    <contour>
      <point x="268" y="516" type="move" name="aboveUC"/>
    </contour>
    <contour>
      <point x="266" y="516" type="move" name="aboveLC"/>
    </contour>
    <contour>
      <point x="288" y="-20" type="move" name="belowLC"/>
    </contour>
  </outline>
</glyph>
<glyph name="rstroke" format="1">
  <advance width="416"/>
  <outline>
    <contour>
      <point x="15" y="154" type="line"/>
      <point x="349" y="154" type="line"/>
      <point x="349" y="225" type="line"/>
      <point x="91" y="225" type="line"/>
      <point x="15" y="219" type="line"/>
    </contour>
    <component base="r" xOffset="18"/>
  </outline>
</glyph>
<glyph name="sha" format="1">
  <advance width="803"/>
  <outline>
    <contour>
      <point x="65" y="0" type="line"/>
      <point x="739" y="0" type="line"/>
      <point x="739" y="496" type="line"/>
      <point x="593" y="496" type="line"/>
      <point x="593" y="115" type="line"/>
      <point x="472" y="115" type="line"/>
      <point x="472" y="496" type="line"/>
      <point x="331" y="496" type="line"/>
      <point x="331" y="115" type="line"/>
      <point x="210" y="115" type="line"/>
      <point x="210" y="496" type="line"/>
      <point x="65" y="496" type="line"/>
    </contour>
    <contour>
      <point x="402" y="516" type="move" name="aboveLC"/>
    </contour>
  </outline>
</glyph>
<glyph name="tbar" format="1">
  <advance width="383"/>
  <outline>
    <contour>
      <point x="17" y="223" type="line"/>
      <point x="351" y="223" type="line"/>
      <point x="351" y="294" type="line"/>
      <point x="93" y="294" type="line"/>
      <point x="17" y="288" type="line"/>
    </contour>
    <component base="t"/>
    <contour>
      <point x="167" y="655" type="move" name="aboveLC"/>
    </contour>
    <contour>
      <point x="224" y="-20" type="move" name="belowLC"/>
    </contour>
  </outline>
</glyph>
<glyph name="te" format="1">
  <advance width="492"/>
  <outline>
    <contour>
      <point x="172" y="0" type="line"/>
      <point x="319" y="0" type="line"/>
      <point x="319" y="381" type="line"/>
      <point x="466" y="381" type="line"/>
      <point x="466" y="496" type="line"/>
      <point x="26" y="496" type="line"/>
      <point x="26" y="381" type="line"/>
      <point x="172" y="381" type="line"/>
    </contour>
    <contour>
      <point x="246" y="516" type="move" name="aboveLC"/>
    </contour>
  </outline>
</glyph>
<glyph name="tildeacutecmb.cap" format="1">
  <outline>
    <contour>
      <point x="-31" y="834" type="line"/>
      <point x="135" y="926" type="line"/>
      <point x="75" y="1007" type="line"/>
      <point x="-80" y="900" type="line"/>
    </contour>
    <contour>
      <point x="-153" y="701" type="curve"/>
      <point x="-83" y="693" type="line"/>
      <point x="-79" y="720"/>
      <point x="-69" y="732"/>
      <point x="-51" y="732" type="curve" smooth="yes"/>
      <point x="-23" y="732"/>
      <point x="5" y="687"/>
      <point x="60" y="687" type="curve" smooth="yes"/>
      <point x="116" y="687"/>
      <point x="149" y="722"/>
      <point x="153" y="798" type="curve"/>
      <point x="83" y="807" type="line"/>
      <point x="79" y="779"/>
      <point x="69" y="767"/>
      <point x="51" y="767" type="curve" smooth="yes"/>
      <point x="23" y="767"/>
      <point x="-5" y="813"/>
      <point x="-60" y="813" type="curve" smooth="yes"/>
      <point x="-116" y="813"/>
      <point x="-149" y="777"/>
    </contour>
    <contour>
      <point x="0" y="674" type="move" name="_aboveUC"/>
    </contour>
  </outline>
</glyph>
<glyph name="tildeacutecmb" format="1">
  <outline>
    <contour>
      <point x="-28" y="713" type="line"/>
      <point x="127" y="804" type="line"/>
      <point x="67" y="878" type="line"/>
      <point x="-77" y="773" type="line"/>
    </contour>
    <contour>
      <point x="-150" y="579" type="curve"/>
      <point x="-83" y="572" type="line"/>
      <point x="-77" y="602"/>
      <point x="-67" y="614"/>
      <point x="-50" y="614" type="curve" smooth="yes"/>
      <point x="-19" y="614"/>
      <point x="2" y="567"/>
      <point x="58" y="567" type="curve" smooth="yes"/>
      <point x="110" y="567"/>
      <point x="142" y="604"/>
      <point x="150" y="683" type="curve"/>
      <point x="83" y="690" type="line"/>
      <point x="77" y="660"/>
      <point x="67" y="647"/>
      <point x="50" y="647" type="curve" smooth="yes"/>
      <point x="19" y="647"/>
      <point x="-2" y="695"/>
      <point x="-58" y="695" type="curve" smooth="yes"/>
      <point x="-110" y="695"/>
      <point x="-142" y="657"/>
    </contour>
    <contour>
      <point x="0" y="518" type="move" name="_aboveLC"/>
    </contour>
  </outline>
</glyph>
<glyph name="tugrik" format="1">
  <advance width="528"/>
  <outline>
    <contour>
      <point x="190" y="0" type="line"/>
      <point x="337" y="0" type="line"/>
      <point x="337" y="528" type="line"/>
      <point x="495" y="528" type="line"/>
      <point x="495" y="635" type="line"/>
      <point x="32" y="635" type="line"/>
      <point x="32" y="528" type="line"/>
      <point x="190" y="528" type="line"/>
    </contour>
    <contour>
      <point x="96" y="78" type="line"/>
      <point x="190" y="129" type="line"/>
      <point x="337" y="201" type="line"/>
      <point x="465" y="268" type="line"/>
      <point x="432" y="333" type="line"/>
      <point x="337" y="282" type="line"/>
      <point x="337" y="336" type="line"/>
      <point x="465" y="404" type="line"/>
      <point x="432" y="468" type="line"/>
      <point x="337" y="418" type="line"/>
      <point x="190" y="346" type="line"/>
      <point x="63" y="278" type="line"/>
      <point x="96" y="213" type="line"/>
      <point x="190" y="264" type="line"/>
      <point x="190" y="210" type="line"/>
      <point x="63" y="142" type="line"/>
    </contour>
  </outline>
</glyph>
<glyph name="ubar" format="1">
  <advance width="617"/>
  <outline>
    <contour>
      <point x="12" y="268" type="line"/>
      <point x="601" y="268" type="line"/>
      <point x="601" y="339" type="line"/>
      <point x="92" y="339" type="line"/>
      <point x="12" y="333" type="line"/>
    </contour>
    <component base="u" xOffset="27"/>
    <contour>
      <point x="320" y="516" type="move" name="aboveLC"/>
    </contour>
    <contour>
      <point x="309" y="0" type="move" name="baseLC"/>
    </contour>
    <contour>
      <point x="309" y="-20" type="move" name="belowLC"/>
    </contour>
  </outline>
</glyph>
<glyph name="uhorn" format="1">
  <advance width="568"/>
  <outline>
    <contour>
      <point x="501" y="450" type="line"/>
      <point x="560" y="469"/>
      <point x="607" y="517"/>
      <point x="607" y="598" type="curve" smooth="yes"/>
      <point x="607" y="635"/>
      <point x="593" y="672"/>
      <point x="577" y="692" type="curve"/>
      <point x="469" y="645" type="line"/>
      <point x="476" y="631"/>
      <point x="484" y="610"/>
      <point x="484" y="588" type="curve" smooth="yes"/>
      <point x="484" y="511"/>
      <point x="441" y="498"/>
      <point x="403" y="496" type="curve"/>
    </contour>
    <component base="u"/>
    <contour>
      <point x="293" y="516" type="move" name="aboveLC"/>
    </contour>
    <contour>
      <point x="288" y="-20" type="move" name="belowLC"/>
    </contour>
  </outline>
</glyph>
<glyph name="wturned" format="1">
  <advance width="776"/>
  <outline>
    <component base="w" xScale="-1.0" yScale="-1.0" xOffset="776" yOffset="496"/>
    <contour>
      <point x="389" y="516" type="move" name="aboveLC"/>
    </contour>
    <contour>
      <point x="389" y="-20" type="move" name="belowLC"/>
    </contour>
  </outline>
</glyph>
<glyph name="yhook" format="1">
  <advance width="560"/>
  <outline>
    <contour>
      <point x="120" y="-194" type="curve" smooth="yes"/>
      <point x="237" y="-194"/>
      <point x="290" y="-130"/>
      <point x="337" y="-5" type="curve"/>
      <point x="460" y="352" type="line" smooth="yes"/>
      <point x="490" y="439"/>
      <point x="499" y="457"/>
      <point x="527" y="457" type="curve" smooth="yes"/>
      <point x="549" y="457"/>
      <point x="568" y="440"/>
      <point x="578" y="424" type="curve"/>
      <point x="663" y="495" type="line"/>
      <point x="637" y="534"/>
      <point x="586" y="587"/>
      <point x="514" y="587" type="curve" smooth="yes"/>
      <point x="447" y="587"/>
      <point x="387" y="558"/>
      <point x="356" y="447" type="curve" smooth="yes"/>
      <point x="308" y="283" type="line" smooth="yes"/>
      <point x="296" y="236"/>
      <point x="285" y="189"/>
      <point x="274" y="142" type="curve"/>
      <point x="270" y="142" type="line"/>
      <point x="257" y="191"/>
      <point x="245" y="238"/>
      <point x="231" y="283" type="curve" smooth="yes"/>
      <point x="160" y="496" type="line"/>
      <point x="12" y="496" type="line"/>
      <point x="203" y="13" type="line"/>
      <point x="196" y="-13" type="line" smooth="yes"/>
      <point x="183" y="-52"/>
      <point x="158" y="-78"/>
      <point x="109" y="-78" type="curve" smooth="yes"/>
      <point x="98" y="-78"/>
      <point x="85" y="-74"/>
      <point x="76" y="-72" type="curve"/>
      <point x="50" y="-184" type="line"/>
      <point x="70" y="-190"/>
      <point x="90" y="-194"/>
    </contour>
    <contour>
      <point x="267" y="518" type="move" name="aboveLC"/>
    </contour>
    <contour>
      <point x="227" y="-241" type="move" name="belowLC"/>
    </contour>
  </outline>
</glyph>
